DavidX-Bold_draw_a.ufo
<glyph name="ampersand" format="1">
  <advance width="755"/>
  <unicode hex="0026"/>
  <outline>
    <contour>
      <point x="169" y="516" type="curve" smooth="yes"/>
      <point x="169" y="478"/>
      <point x="180" y="450"/>
      <point x="215" y="404" type="curve"/>
      <point x="195" y="391"/>
      <point x="98" y="324"/>
      <point x="98" y="203" type="curve" smooth="yes"/>
      <point x="98" y="49"/>
      <point x="213" y="-8"/>
      <point x="313" y="-8" type="curve" smooth="yes"/>
      <point x="403" y="-8"/>
      <point x="449" y="23"/>
      <point x="496" y="55" type="curve"/>
      <point x="502" y="46"/>
      <point x="534" y="9"/>
      <point x="547" y="-4" type="curve" smooth="yes"/>
      <point x="548" y="-5"/>
      <point x="556" y="-12"/>
      <point x="561" y="-12" type="curve" smooth="yes"/>
      <point x="569" y="-12"/>
      <point x="583" y="-4"/>
      <point x="586" y="-2" type="curve" smooth="yes"/>
      <point x="617" y="17"/>
      <point x="647" y="37"/>
      <point x="680" y="66" type="curve" smooth="yes"/>
      <point x="688" y="73"/>
      <point x="696" y="81"/>
      <point x="696" y="88" type="curve" smooth="yes"/>
      <point x="696" y="92"/>
      <point x="690" y="95"/>
      <point x="687" y="98" type="curve" smooth="yes"/>
      <point x="654" y="125"/>
      <point x="640" y="142"/>
      <point x="610" y="179" type="curve"/>
      <point x="655" y="233"/>
      <point x="681" y="301"/>
      <point x="681" y="367" type="curve" smooth="yes"/>
      <point x="681" y="411"/>
      <point x="669" y="455"/>
      <point x="644" y="493" type="curve" smooth="yes"/>
      <point x="640" y="499"/>
      <point x="635" y="502"/>
      <point x="631" y="502" type="curve" smooth="yes"/>
      <point x="627" y="502"/>
      <point x="621" y="497"/>
      <point x="618" y="494" type="curve" smooth="yes"/>
      <point x="606" y="483"/>
      <point x="544" y="415"/>
      <point x="531" y="401" type="curve" smooth="yes"/>
      <point x="527" y="397"/>
      <point x="523" y="389"/>
      <point x="523" y="386" type="curve" smooth="yes"/>
      <point x="523" y="384"/>
      <point x="525" y="378"/>
      <point x="527" y="375" type="curve" smooth="yes"/>
      <point x="541" y="354"/>
      <point x="563" y="320"/>
      <point x="563" y="282" type="curve" smooth="yes"/>
      <point x="563" y="269"/>
      <point x="561" y="256"/>
      <point x="555" y="243" type="curve"/>
      <point x="495" y="313"/>
      <point x="487" y="326"/>
      <point x="408" y="422" type="curve"/>
      <point x="453" y="456"/>
      <point x="534" y="498"/>
      <point x="534" y="586" type="curve" smooth="yes"/>
      <point x="534" y="677"/>
      <point x="453" y="724"/>
      <point x="389" y="724" type="curve" smooth="yes"/>
      <point x="283" y="724"/>
      <point x="169" y="628"/>
    </contour>
    <contour>
      <point x="344" y="635" type="curve" smooth="yes"/>
      <point x="374" y="635"/>
      <point x="386" y="608"/>
      <point x="386" y="578" type="curve" smooth="yes"/>
      <point x="386" y="547"/>
      <point x="373" y="511"/>
      <point x="350" y="496" type="curve"/>
      <point x="329" y="523"/>
      <point x="302" y="567"/>
      <point x="302" y="590" type="curve" smooth="yes"/>
      <point x="302" y="613"/>
      <point x="327" y="635"/>
    </contour>
    <contour>
      <point x="279" y="324" type="curve"/>
      <point x="340" y="246"/>
      <point x="382" y="196"/>
      <point x="444" y="121" type="curve"/>
      <point x="433" y="112"/>
      <point x="402" y="103"/>
      <point x="376" y="103" type="curve" smooth="yes"/>
      <point x="293" y="103"/>
      <point x="246" y="172"/>
      <point x="246" y="238" type="curve" smooth="yes"/>
      <point x="246" y="270"/>
      <point x="257" y="301"/>
    </contour>
  </outline>
</glyph>
<glyph name="quotesingle" format="1">
  <advance width="310"/>
  <unicode hex="0027"/>
  <outline>
    <contour>
      <point x="155" y="275" type="curve" smooth="yes"/>
      <point x="144" y="275"/>
      <point x="135" y="284"/>
      <point x="133" y="292" type="curve" smooth="yes"/>
      <point x="126" y="324"/>
      <point x="102" y="436"/>
      <point x="96" y="519" type="curve" smooth="yes"/>
      <point x="94" y="539"/>
      <point x="94" y="560"/>
      <point x="94" y="584" type="curve" smooth="yes"/>
      <point x="94" y="599"/>
      <point x="101" y="616"/>
      <point x="116" y="616" type="curve" smooth="yes"/>
      <point x="194" y="616" type="line" smooth="yes"/>
      <point x="209" y="616"/>
      <point x="216" y="599"/>
      <point x="216" y="584" type="curve" smooth="yes"/>
      <point x="216" y="560"/>
      <point x="216" y="539"/>
      <point x="214" y="519" type="curve" smooth="yes"/>
      <point x="208" y="436"/>
      <point x="185" y="324"/>
      <point x="178" y="292" type="curve" smooth="yes"/>
      <point x="176" y="284"/>
      <point x="166" y="275"/>
    </contour>
  </outline>
</glyph>
<glyph name="asterisk" format="1">
  <advance width="408"/>
  <unicode hex="002A"/>
  <outline>
    <contour>
      <point x="211" y="601" type="curve" smooth="yes"/>
      <point x="208" y="603"/>
      <point x="206" y="604"/>
      <point x="203" y="604" type="curve" smooth="yes"/>
      <point x="201" y="604"/>
      <point x="199" y="603"/>
      <point x="197" y="601" type="curve" smooth="yes"/>
      <point x="190" y="598"/>
      <point x="139" y="562"/>
      <point x="132" y="559" type="curve" smooth="yes"/>
      <point x="130" y="557"/>
      <point x="128" y="557"/>
      <point x="126" y="557" type="curve" smooth="yes"/>
      <point x="121" y="557"/>
      <point x="116" y="561"/>
      <point x="116" y="568" type="curve" smooth="yes"/>
      <point x="116" y="581"/>
      <point x="139" y="629"/>
      <point x="139" y="637" type="curve" smooth="yes"/>
      <point x="139" y="646"/>
      <point x="138" y="650"/>
      <point x="136" y="652" type="curve" smooth="yes"/>
      <point x="119" y="665"/>
      <point x="87" y="686"/>
      <point x="81" y="690" type="curve" smooth="yes"/>
      <point x="77" y="692"/>
      <point x="76" y="698"/>
      <point x="76" y="700" type="curve" smooth="yes"/>
      <point x="76" y="704"/>
      <point x="78" y="708"/>
      <point x="85" y="708" type="curve"/>
      <point x="151" y="708" type="line" smooth="yes"/>
      <point x="159" y="708"/>
      <point x="167" y="711"/>
      <point x="169" y="720" type="curve" smooth="yes"/>
      <point x="175" y="737"/>
      <point x="191" y="785"/>
      <point x="194" y="790" type="curve" smooth="yes"/>
      <point x="195" y="795"/>
      <point x="199" y="798"/>
      <point x="203" y="798" type="curve" smooth="yes"/>
      <point x="207" y="798"/>
      <point x="211" y="795"/>
      <point x="212" y="790" type="curve" smooth="yes"/>
      <point x="214" y="785"/>
      <point x="233" y="737"/>
      <point x="238" y="720" type="curve" smooth="yes"/>
      <point x="241" y="711"/>
      <point x="249" y="708"/>
      <point x="256" y="708" type="curve" smooth="yes"/>
      <point x="320" y="708" type="line" smooth="yes"/>
      <point x="327" y="708"/>
      <point x="329" y="704"/>
      <point x="329" y="700" type="curve" smooth="yes"/>
      <point x="329" y="698"/>
      <point x="325" y="691"/>
      <point x="321" y="689" type="curve" smooth="yes"/>
      <point x="315" y="685"/>
      <point x="288" y="665"/>
      <point x="272" y="652" type="curve" smooth="yes"/>
      <point x="269" y="650"/>
      <point x="268" y="646"/>
      <point x="268" y="637" type="curve" smooth="yes"/>
      <point x="268" y="626"/>
      <point x="289" y="582"/>
      <point x="289" y="569" type="curve" smooth="yes"/>
      <point x="289" y="562"/>
      <point x="285" y="557"/>
      <point x="280" y="557" type="curve" smooth="yes"/>
      <point x="280" y="557"/>
      <point x="277" y="559"/>
      <point x="276" y="559" type="curve" smooth="yes"/>
      <point x="268" y="562"/>
      <point x="217" y="598"/>
    </contour>
  </outline>
</glyph>
<glyph name="three" format="1">
  <advance width="568"/>
  <unicode hex="0033"/>
  <outline>
    <contour>
      <point x="68" y="62" type="curve" smooth="yes"/>
      <point x="85" y="96"/>
      <point x="119" y="136"/>
      <point x="134" y="151" type="curve" smooth="yes"/>
      <point x="141" y="158"/>
      <point x="146" y="163"/>
      <point x="152" y="163" type="curve" smooth="yes"/>
      <point x="157" y="163"/>
      <point x="164" y="160"/>
      <point x="171" y="156" type="curve" smooth="yes"/>
      <point x="186" y="148"/>
      <point x="227" y="134"/>
      <point x="261" y="134" type="curve" smooth="yes"/>
      <point x="295" y="134"/>
      <point x="334" y="162"/>
      <point x="334" y="205" type="curve" smooth="yes"/>
      <point x="334" y="234"/>
      <point x="305" y="262"/>
      <point x="273" y="271" type="curve" smooth="yes"/>
      <point x="249" y="278"/>
      <point x="217" y="284"/>
      <point x="194" y="284" type="curve" smooth="yes"/>
      <point x="180" y="284"/>
      <point x="173" y="286"/>
      <point x="173" y="300" type="curve" smooth="yes"/>
      <point x="173" y="329"/>
      <point x="211" y="403"/>
      <point x="258" y="431" type="curve" smooth="yes"/>
      <point x="291" y="451"/>
      <point x="310" y="469"/>
      <point x="310" y="506" type="curve" smooth="yes"/>
      <point x="310" y="539"/>
      <point x="286" y="555"/>
      <point x="256" y="564" type="curve" smooth="yes"/>
      <point x="223" y="574"/>
      <point x="156" y="577"/>
      <point x="131" y="577" type="curve" smooth="yes"/>
      <point x="120" y="577"/>
      <point x="113" y="579"/>
      <point x="113" y="589" type="curve" smooth="yes"/>
      <point x="113" y="602"/>
      <point x="167" y="684"/>
      <point x="187" y="704" type="curve" smooth="yes"/>
      <point x="193" y="710"/>
      <point x="198" y="715"/>
      <point x="208" y="715" type="curve" smooth="yes"/>
      <point x="233" y="715"/>
      <point x="325" y="703"/>
      <point x="368" y="685" type="curve" smooth="yes"/>
      <point x="415" y="666"/>
      <point x="450" y="621"/>
      <point x="450" y="565" type="curve" smooth="yes"/>
      <point x="450" y="499"/>
      <point x="407" y="446"/>
      <point x="385" y="422" type="curve" smooth="yes"/>
      <point x="380" y="417"/>
      <point x="379" y="413"/>
      <point x="379" y="411" type="curve" smooth="yes"/>
      <point x="379" y="406"/>
      <point x="383" y="405"/>
      <point x="386" y="403" type="curve" smooth="yes"/>
      <point x="408" y="388"/>
      <point x="487" y="357"/>
      <point x="487" y="248" type="curve" smooth="yes"/>
      <point x="487" y="162"/>
      <point x="436" y="92"/>
      <point x="391" y="49" type="curve" smooth="yes"/>
      <point x="343" y="3"/>
      <point x="269" y="-18"/>
      <point x="224" y="-18" type="curve" smooth="yes"/>
      <point x="179" y="-18"/>
      <point x="126" y="-2"/>
      <point x="76" y="25" type="curve" smooth="yes"/>
      <point x="71" y="28"/>
      <point x="62" y="34"/>
      <point x="62" y="42" type="curve" smooth="yes"/>
      <point x="62" y="47"/>
      <point x="64" y="55"/>
    </contour>
  </outline>
</glyph>
<glyph name="seven" format="1">
  <advance width="568"/>
  <unicode hex="0037"/>
  <outline>
    <contour>
      <point x="137" y="167" type="curve" smooth="yes"/>
      <point x="163" y="235"/>
      <point x="200" y="296"/>
      <point x="252" y="364" type="curve" smooth="yes"/>
      <point x="277" y="398"/>
      <point x="311" y="471"/>
      <point x="311" y="492" type="curve" smooth="yes"/>
      <point x="311" y="501"/>
      <point x="303" y="508"/>
      <point x="290" y="508" type="curve" smooth="yes"/>
      <point x="77" y="508" type="line"/>
      <point x="54" y="508"/>
      <point x="40" y="511"/>
      <point x="40" y="529" type="curve" smooth="yes"/>
      <point x="40" y="531"/>
      <point x="46" y="551"/>
      <point x="52" y="566" type="curve" smooth="yes"/>
      <point x="72" y="619"/>
      <point x="102" y="674"/>
      <point x="126" y="705" type="curve" smooth="yes"/>
      <point x="132" y="713"/>
      <point x="144" y="718"/>
      <point x="152" y="718" type="curve" smooth="yes"/>
      <point x="162" y="718"/>
      <point x="170" y="712"/>
      <point x="173" y="704" type="curve" smooth="yes"/>
      <point x="181" y="680"/>
      <point x="186" y="676"/>
      <point x="207" y="676" type="curve" smooth="yes"/>
      <point x="474" y="676" type="line"/>
      <point x="508" y="676"/>
      <point x="518" y="657"/>
      <point x="518" y="639" type="curve" smooth="yes"/>
      <point x="518" y="611"/>
      <point x="493" y="545"/>
      <point x="460" y="488" type="curve" smooth="yes"/>
      <point x="440" y="452"/>
      <point x="414" y="419"/>
      <point x="394" y="392" type="curve" smooth="yes"/>
      <point x="364" y="351"/>
      <point x="331" y="294"/>
      <point x="312" y="245" type="curve" smooth="yes"/>
      <point x="304" y="224"/>
      <point x="290" y="174"/>
      <point x="290" y="150" type="curve" smooth="yes"/>
      <point x="290" y="133"/>
      <point x="282" y="120"/>
      <point x="273" y="107" type="curve" smooth="yes"/>
      <point x="243" y="63"/>
      <point x="184" y="6"/>
      <point x="145" y="-18" type="curve" smooth="yes"/>
      <point x="141" y="-21"/>
      <point x="134" y="-24"/>
      <point x="129" y="-24" type="curve" smooth="yes"/>
      <point x="117" y="-24"/>
      <point x="110" y="-15"/>
      <point x="110" y="1" type="curve" smooth="yes"/>
      <point x="110" y="77"/>
      <point x="122" y="128"/>
    </contour>
  </outline>
</glyph>
<glyph name="eight" format="1">
  <advance width="568"/>
  <unicode hex="0038"/>
  <outline>
    <contour>
      <point x="52" y="172" type="curve" smooth="yes"/>
      <point x="52" y="260"/>
      <point x="120" y="326"/>
      <point x="136" y="339" type="curve" smooth="yes"/>
      <point x="141" y="343"/>
      <point x="142" y="344"/>
      <point x="142" y="346" type="curve" smooth="yes"/>
      <point x="142" y="348"/>
      <point x="139" y="349"/>
      <point x="134" y="352" type="curve" smooth="yes"/>
      <point x="93" y="375"/>
      <point x="60" y="420"/>
      <point x="60" y="490" type="curve" smooth="yes"/>
      <point x="60" y="533"/>
      <point x="84" y="598"/>
      <point x="123" y="645" type="curve" smooth="yes"/>
      <point x="158" y="687"/>
      <point x="205" y="715"/>
      <point x="251" y="715" type="curve" smooth="yes"/>
      <point x="299" y="715"/>
      <point x="347" y="697"/>
      <point x="380" y="673" type="curve" smooth="yes"/>
      <point x="423" y="643"/>
      <point x="445" y="593"/>
      <point x="445" y="552" type="curve" smooth="yes"/>
      <point x="445" y="493"/>
      <point x="419" y="447"/>
      <point x="379" y="403" type="curve" smooth="yes"/>
      <point x="378" y="402"/>
      <point x="376" y="400"/>
      <point x="376" y="398" type="curve" smooth="yes"/>
      <point x="376" y="396"/>
      <point x="377" y="393"/>
      <point x="382" y="391" type="curve" smooth="yes"/>
      <point x="415" y="373"/>
      <point x="444" y="352"/>
      <point x="462" y="335" type="curve" smooth="yes"/>
      <point x="496" y="303"/>
      <point x="501" y="260"/>
      <point x="501" y="237" type="curve" smooth="yes"/>
      <point x="501" y="180"/>
      <point x="464" y="99"/>
      <point x="405" y="40" type="curve" smooth="yes"/>
      <point x="359" y="-5"/>
      <point x="305" y="-18"/>
      <point x="261" y="-18" type="curve" smooth="yes"/>
      <point x="232" y="-18"/>
      <point x="184" y="-12"/>
      <point x="141" y="16" type="curve" smooth="yes"/>
      <point x="96" y="45"/>
      <point x="52" y="108"/>
    </contour>
    <contour>
      <point x="328" y="237" type="curve" smooth="yes"/>
      <point x="309" y="252"/>
      <point x="244" y="289"/>
      <point x="235" y="294" type="curve" smooth="yes"/>
      <point x="234" y="295"/>
      <point x="228" y="299"/>
      <point x="221" y="299" type="curve" smooth="yes"/>
      <point x="211" y="299"/>
      <point x="181" y="275"/>
      <point x="181" y="228" type="curve" smooth="yes"/>
      <point x="181" y="177"/>
      <point x="221" y="137"/>
      <point x="280" y="137" type="curve" smooth="yes"/>
      <point x="317" y="137"/>
      <point x="348" y="157"/>
      <point x="348" y="198" type="curve" smooth="yes"/>
      <point x="348" y="211"/>
      <point x="345" y="223"/>
    </contour>
    <contour>
      <point x="242" y="567" type="curve" smooth="yes"/>
      <point x="207" y="567"/>
      <point x="196" y="542"/>
      <point x="196" y="527" type="curve" smooth="yes"/>
      <point x="196" y="515"/>
      <point x="200" y="504"/>
      <point x="209" y="492" type="curve" smooth="yes"/>
      <point x="223" y="475"/>
      <point x="292" y="439"/>
      <point x="295" y="439" type="curve" smooth="yes"/>
      <point x="299" y="439"/>
      <point x="304" y="445"/>
      <point x="309" y="451" type="curve" smooth="yes"/>
      <point x="319" y="465"/>
      <point x="323" y="484"/>
      <point x="323" y="496" type="curve" smooth="yes"/>
      <point x="323" y="541"/>
      <point x="284" y="567"/>
    </contour>
  </outline>
</glyph>
<glyph name="equal" format="1">
  <advance width="568"/>
  <unicode hex="003D"/>
  <outline>
    <contour>
      <point x="82" y="474" type="curve"/>
      <point x="69" y="474"/>
      <point x="66" y="468"/>
      <point x="66" y="458" type="curve" smooth="yes"/>
      <point x="66" y="399" type="line" smooth="yes"/>
      <point x="66" y="390"/>
      <point x="69" y="384"/>
      <point x="82" y="384" type="curve" smooth="yes"/>
      <point x="82" y="384"/>
      <point x="247" y="387"/>
      <point x="302" y="387" type="curve" smooth="yes"/>
      <point x="348" y="387"/>
      <point x="486" y="384"/>
      <point x="486" y="384" type="curve"/>
      <point x="499" y="384"/>
      <point x="502" y="390"/>
      <point x="502" y="399" type="curve" smooth="yes"/>
      <point x="502" y="458" type="line" smooth="yes"/>
      <point x="502" y="472"/>
      <point x="497" y="474"/>
      <point x="488" y="474" type="curve" smooth="yes"/>
      <point x="488" y="474"/>
      <point x="357" y="471"/>
      <point x="300" y="471" type="curve" smooth="yes"/>
      <point x="235" y="471"/>
      <point x="82" y="474"/>
    </contour>
    <contour>
      <point x="82" y="257" type="curve"/>
      <point x="69" y="257"/>
      <point x="66" y="251"/>
      <point x="66" y="241" type="curve" smooth="yes"/>
      <point x="66" y="182" type="line" smooth="yes"/>
      <point x="66" y="173"/>
      <point x="69" y="167"/>
      <point x="82" y="167" type="curve" smooth="yes"/>
      <point x="82" y="167"/>
      <point x="247" y="170"/>
      <point x="302" y="170" type="curve" smooth="yes"/>
      <point x="348" y="170"/>
      <point x="486" y="167"/>
      <point x="486" y="167" type="curve"/>
      <point x="499" y="167"/>
      <point x="502" y="173"/>
      <point x="502" y="182" type="curve" smooth="yes"/>
      <point x="502" y="241" type="line" smooth="yes"/>
      <point x="502" y="255"/>
      <point x="494" y="257"/>
      <point x="488" y="257" type="curve" smooth="yes"/>
      <point x="488" y="257"/>
      <point x="357" y="254"/>
      <point x="300" y="254" type="curve" smooth="yes"/>
      <point x="235" y="254"/>
      <point x="82" y="257"/>
    </contour>
  </outline>
</glyph>
<glyph name="bracketleft" format="1">
  <advance width="408"/>
  <unicode hex="005B"/>
  <outline>
    <contour>
      <point x="67" y="-56" type="curve" smooth="yes"/>
      <point x="67" y="16"/>
      <point x="70" y="128"/>
      <point x="70" y="274" type="curve" smooth="yes"/>
      <point x="70" y="420"/>
      <point x="67" y="538"/>
      <point x="67" y="610" type="curve" smooth="yes"/>
      <point x="67" y="647"/>
      <point x="87" y="693"/>
      <point x="132" y="693" type="curve" smooth="yes"/>
      <point x="348" y="693" type="line" smooth="yes"/>
      <point x="359" y="693"/>
      <point x="367" y="691"/>
      <point x="367" y="682" type="curve" smooth="yes"/>
      <point x="367" y="682"/>
      <point x="365" y="673"/>
      <point x="360" y="667" type="curve" smooth="yes"/>
      <point x="348" y="652"/>
      <point x="330" y="637"/>
      <point x="313" y="624" type="curve" smooth="yes"/>
      <point x="303" y="617"/>
      <point x="293" y="613"/>
      <point x="276" y="613" type="curve" smooth="yes"/>
      <point x="198" y="613" type="line" smooth="yes"/>
      <point x="189" y="613"/>
      <point x="178" y="606"/>
      <point x="178" y="588" type="curve" smooth="yes"/>
      <point x="178" y="538"/>
      <point x="180" y="348"/>
      <point x="180" y="274" type="curve" smooth="yes"/>
      <point x="180" y="200"/>
      <point x="178" y="17"/>
      <point x="178" y="-33" type="curve" smooth="yes"/>
      <point x="178" y="-51"/>
      <point x="189" y="-59"/>
      <point x="198" y="-59" type="curve" smooth="yes"/>
      <point x="350" y="-59" type="line" smooth="yes"/>
      <point x="361" y="-59"/>
      <point x="368" y="-61"/>
      <point x="368" y="-70" type="curve" smooth="yes"/>
      <point x="368" y="-70"/>
      <point x="366" y="-79"/>
      <point x="361" y="-85" type="curve" smooth="yes"/>
      <point x="349" y="-100"/>
      <point x="330" y="-116"/>
      <point x="314" y="-128" type="curve" smooth="yes"/>
      <point x="304" y="-136"/>
      <point x="294" y="-139"/>
      <point x="277" y="-139" type="curve" smooth="yes"/>
      <point x="132" y="-139" type="line" smooth="yes"/>
      <point x="87" y="-139"/>
      <point x="67" y="-93"/>
    </contour>
  </outline>
</glyph>
<glyph name="bracketright" format="1">
  <advance width="408"/>
  <unicode hex="005D"/>
  <outline>
    <contour>
      <point x="341" y="610" type="curve" smooth="yes"/>
      <point x="341" y="538"/>
      <point x="338" y="426"/>
      <point x="338" y="280" type="curve" smooth="yes"/>
      <point x="338" y="134"/>
      <point x="341" y="16"/>
      <point x="341" y="-56" type="curve" smooth="yes"/>
      <point x="341" y="-93"/>
      <point x="321" y="-139"/>
      <point x="276" y="-139" type="curve" smooth="yes"/>
      <point x="60" y="-139" type="line" smooth="yes"/>
      <point x="49" y="-139"/>
      <point x="41" y="-137"/>
      <point x="41" y="-128" type="curve" smooth="yes"/>
      <point x="41" y="-128"/>
      <point x="43" y="-119"/>
      <point x="48" y="-113" type="curve" smooth="yes"/>
      <point x="60" y="-98"/>
      <point x="78" y="-83"/>
      <point x="95" y="-70" type="curve" smooth="yes"/>
      <point x="104" y="-63"/>
      <point x="115" y="-59"/>
      <point x="132" y="-59" type="curve" smooth="yes"/>
      <point x="210" y="-59" type="line" smooth="yes"/>
      <point x="219" y="-59"/>
      <point x="230" y="-52"/>
      <point x="230" y="-34" type="curve" smooth="yes"/>
      <point x="230" y="16"/>
      <point x="228" y="206"/>
      <point x="228" y="280" type="curve" smooth="yes"/>
      <point x="228" y="354"/>
      <point x="230" y="537"/>
      <point x="230" y="587" type="curve" smooth="yes"/>
      <point x="230" y="605"/>
      <point x="219" y="613"/>
      <point x="210" y="613" type="curve" smooth="yes"/>
      <point x="58" y="613" type="line" smooth="yes"/>
      <point x="47" y="613"/>
      <point x="40" y="615"/>
      <point x="40" y="624" type="curve" smooth="yes"/>
      <point x="40" y="624"/>
      <point x="42" y="633"/>
      <point x="47" y="639" type="curve" smooth="yes"/>
      <point x="59" y="654"/>
      <point x="77" y="670"/>
      <point x="94" y="682" type="curve" smooth="yes"/>
      <point x="105" y="690"/>
      <point x="114" y="693"/>
      <point x="131" y="693" type="curve" smooth="yes"/>
      <point x="276" y="693" type="line" smooth="yes"/>
      <point x="321" y="693"/>
      <point x="341" y="647"/>
    </contour>
  </outline>
</glyph>
<glyph name="asciicircum" format="1">
  <advance width="568"/>
  <unicode hex="005E"/>
  <outline>
    <contour>
      <point x="319" y="700" type="line"/>
      <point x="329" y="700"/>
      <point x="331" y="697"/>
      <point x="334" y="691" type="curve"/>
      <point x="334" y="691"/>
      <point x="396" y="551"/>
      <point x="424" y="492" type="curve" smooth="yes"/>
      <point x="448" y="441"/>
      <point x="506" y="323"/>
      <point x="506" y="323" type="curve"/>
      <point x="508" y="319"/>
      <point x="509" y="315"/>
      <point x="509" y="311" type="curve" smooth="yes"/>
      <point x="509" y="306"/>
      <point x="507" y="302"/>
      <point x="497" y="297" type="curve" smooth="yes"/>
      <point x="444" y="272" type="line" smooth="yes"/>
      <point x="441" y="271"/>
      <point x="438" y="269"/>
      <point x="435" y="269" type="curve" smooth="yes"/>
      <point x="430" y="269"/>
      <point x="427" y="272"/>
      <point x="424" y="280" type="curve"/>
      <point x="424" y="280"/>
      <point x="369" y="406"/>
      <point x="349" y="448" type="curve" smooth="yes"/>
      <point x="285" y="582" type="line"/>
      <point x="221" y="448" type="line" smooth="yes"/>
      <point x="201" y="406"/>
      <point x="146" y="280"/>
      <point x="146" y="280" type="curve"/>
      <point x="143" y="272"/>
      <point x="139" y="270"/>
      <point x="134" y="270" type="curve" smooth="yes"/>
      <point x="131" y="270"/>
      <point x="129" y="271"/>
      <point x="126" y="272" type="curve" smooth="yes"/>
      <point x="68" y="300" type="line" smooth="yes"/>
      <point x="62" y="303"/>
      <point x="60" y="306"/>
      <point x="60" y="310" type="curve" smooth="yes"/>
      <point x="60" y="313"/>
      <point x="62" y="319"/>
      <point x="64" y="323" type="curve"/>
      <point x="64" y="323"/>
      <point x="122" y="441"/>
      <point x="146" y="492" type="curve" smooth="yes"/>
      <point x="174" y="551"/>
      <point x="236" y="691"/>
      <point x="236" y="691" type="curve"/>
      <point x="239" y="697"/>
      <point x="243" y="700"/>
      <point x="256" y="700" type="curve" smooth="yes"/>
    </contour>
  </outline>
</glyph>
<glyph name="braceleft" format="1">
  <advance width="408"/>
  <unicode hex="007B"/>
  <outline>
    <contour>
      <point x="350" y="693" type="line"/>
      <point x="361" y="693"/>
      <point x="368" y="691"/>
      <point x="368" y="682" type="curve" smooth="yes"/>
      <point x="368" y="682"/>
      <point x="366" y="673"/>
      <point x="361" y="667" type="curve" smooth="yes"/>
      <point x="349" y="652"/>
      <point x="331" y="636"/>
      <point x="314" y="624" type="curve" smooth="yes"/>
      <point x="304" y="617"/>
      <point x="294" y="613"/>
      <point x="277" y="613" type="curve" smooth="yes"/>
      <point x="225" y="613" type="line" smooth="yes"/>
      <point x="194" y="613"/>
      <point x="188" y="594"/>
      <point x="188" y="571" type="curve" smooth="yes"/>
      <point x="188" y="536"/>
      <point x="193" y="472"/>
      <point x="193" y="424" type="curve" smooth="yes"/>
      <point x="193" y="352"/>
      <point x="174" y="306"/>
      <point x="131" y="284" type="curve" smooth="yes"/>
      <point x="129" y="283"/>
      <point x="128" y="281"/>
      <point x="128" y="278" type="curve" smooth="yes"/>
      <point x="128" y="275"/>
      <point x="129" y="273"/>
      <point x="131" y="272" type="curve" smooth="yes"/>
      <point x="174" y="250"/>
      <point x="193" y="204"/>
      <point x="193" y="132" type="curve" smooth="yes"/>
      <point x="193" y="75"/>
      <point x="188" y="17"/>
      <point x="188" y="-20" type="curve" smooth="yes"/>
      <point x="188" y="-41"/>
      <point x="194" y="-58"/>
      <point x="224" y="-58" type="curve" smooth="yes"/>
      <point x="349" y="-58" type="line"/>
      <point x="360" y="-58"/>
      <point x="367" y="-60"/>
      <point x="367" y="-69" type="curve" smooth="yes"/>
      <point x="367" y="-69"/>
      <point x="365" y="-78"/>
      <point x="360" y="-84" type="curve" smooth="yes"/>
      <point x="348" y="-99"/>
      <point x="330" y="-115"/>
      <point x="313" y="-127" type="curve" smooth="yes"/>
      <point x="303" y="-134"/>
      <point x="293" y="-138"/>
      <point x="276" y="-138" type="curve" smooth="yes"/>
      <point x="190" y="-138" type="line"/>
      <point x="108" y="-138"/>
      <point x="78" y="-81"/>
      <point x="78" y="-3" type="curve" smooth="yes"/>
      <point x="78" y="36"/>
      <point x="86" y="83"/>
      <point x="86" y="129" type="curve" smooth="yes"/>
      <point x="86" y="168"/>
      <point x="77" y="201"/>
      <point x="40" y="216" type="curve" smooth="yes"/>
      <point x="35" y="218"/>
      <point x="29" y="223"/>
      <point x="29" y="230" type="curve" smooth="yes"/>
      <point x="29" y="326" type="line"/>
      <point x="29" y="333"/>
      <point x="35" y="338"/>
      <point x="40" y="340" type="curve" smooth="yes"/>
      <point x="77" y="355"/>
      <point x="86" y="388"/>
      <point x="86" y="427" type="curve" smooth="yes"/>
      <point x="86" y="473"/>
      <point x="78" y="520"/>
      <point x="78" y="559" type="curve"/>
      <point x="78" y="637"/>
      <point x="109" y="694"/>
      <point x="192" y="694" type="curve" smooth="yes"/>
    </contour>
  </outline>
</glyph>
<glyph name="braceright" format="1">
  <advance width="408"/>
  <unicode hex="007D"/>
  <outline>
    <contour>
      <point x="58" y="-137" type="line"/>
      <point x="47" y="-137"/>
      <point x="40" y="-135"/>
      <point x="40" y="-126" type="curve" smooth="yes"/>
      <point x="40" y="-126"/>
      <point x="42" y="-117"/>
      <point x="47" y="-111" type="curve" smooth="yes"/>
      <point x="59" y="-96"/>
      <point x="77" y="-80"/>
      <point x="94" y="-68" type="curve" smooth="yes"/>
      <point x="104" y="-61"/>
      <point x="114" y="-57"/>
      <point x="131" y="-57" type="curve" smooth="yes"/>
      <point x="183" y="-57" type="line" smooth="yes"/>
      <point x="214" y="-57"/>
      <point x="220" y="-38"/>
      <point x="220" y="-15" type="curve" smooth="yes"/>
      <point x="220" y="20"/>
      <point x="215" y="84"/>
      <point x="215" y="132" type="curve" smooth="yes"/>
      <point x="215" y="204"/>
      <point x="234" y="250"/>
      <point x="277" y="272" type="curve" smooth="yes"/>
      <point x="279" y="273"/>
      <point x="280" y="275"/>
      <point x="280" y="278" type="curve" smooth="yes"/>
      <point x="280" y="281"/>
      <point x="279" y="283"/>
      <point x="277" y="284" type="curve" smooth="yes"/>
      <point x="234" y="306"/>
      <point x="215" y="352"/>
      <point x="215" y="424" type="curve" smooth="yes"/>
      <point x="215" y="481"/>
      <point x="220" y="539"/>
      <point x="220" y="576" type="curve" smooth="yes"/>
      <point x="220" y="597"/>
      <point x="214" y="614"/>
      <point x="184" y="614" type="curve" smooth="yes"/>
      <point x="59" y="614" type="line" smooth="yes"/>
      <point x="48" y="614"/>
      <point x="41" y="616"/>
      <point x="41" y="625" type="curve" smooth="yes"/>
      <point x="41" y="625"/>
      <point x="43" y="634"/>
      <point x="48" y="640" type="curve" smooth="yes"/>
      <point x="60" y="655"/>
      <point x="78" y="671"/>
      <point x="95" y="683" type="curve" smooth="yes"/>
      <point x="105" y="690"/>
      <point x="115" y="694"/>
      <point x="132" y="694" type="curve" smooth="yes"/>
      <point x="218" y="694" type="line" smooth="yes"/>
      <point x="300" y="694"/>
      <point x="330" y="637"/>
      <point x="330" y="559" type="curve" smooth="yes"/>
      <point x="330" y="520"/>
      <point x="322" y="473"/>
      <point x="322" y="427" type="curve" smooth="yes"/>
      <point x="322" y="388"/>
      <point x="329" y="355"/>
      <point x="366" y="340" type="curve" smooth="yes"/>
      <point x="371" y="338"/>
      <point x="377" y="333"/>
      <point x="377" y="326" type="curve" smooth="yes"/>
      <point x="377" y="230" type="line" smooth="yes"/>
      <point x="377" y="223"/>
      <point x="371" y="218"/>
      <point x="366" y="216" type="curve" smooth="yes"/>
      <point x="329" y="201"/>
      <point x="322" y="168"/>
      <point x="322" y="129" type="curve" smooth="yes"/>
      <point x="322" y="83"/>
      <point x="330" y="36"/>
      <point x="330" y="-3" type="curve" smooth="yes"/>
      <point x="330" y="-81"/>
      <point x="299" y="-138"/>
      <point x="216" y="-138" type="curve" smooth="yes"/>
    </contour>
  </outline>
</glyph>
<glyph name="sterling" format="1">
  <advance width="568"/>
  <unicode hex="00A3"/>
  <outline>
    <contour>
      <point x="480" y="736" type="curve" smooth="yes"/>
      <point x="488" y="730"/>
      <point x="490" y="724"/>
      <point x="490" y="718" type="curve" smooth="yes"/>
      <point x="490" y="712"/>
      <point x="484" y="701"/>
      <point x="481" y="696" type="curve" smooth="yes"/>
      <point x="474" y="683"/>
      <point x="446" y="639"/>
      <point x="419" y="602" type="curve" smooth="yes"/>
      <point x="416" y="598"/>
      <point x="411" y="593"/>
      <point x="405" y="593" type="curve" smooth="yes"/>
      <point x="401" y="593"/>
      <point x="395" y="594"/>
      <point x="388" y="598" type="curve" smooth="yes"/>
      <point x="339" y="626"/>
      <point x="323" y="633"/>
      <point x="297" y="633" type="curve" smooth="yes"/>
      <point x="253" y="633"/>
      <point x="231" y="608"/>
      <point x="231" y="575" type="curve" smooth="yes"/>
      <point x="231" y="568"/>
      <point x="232" y="561"/>
      <point x="234" y="554" type="curve" smooth="yes"/>
      <point x="254" y="474" type="line"/>
      <point x="256" y="467"/>
      <point x="260" y="465"/>
      <point x="261" y="465" type="curve"/>
      <point x="454" y="465" type="line"/>
      <point x="464" y="465"/>
      <point x="468" y="459"/>
      <point x="468" y="453" type="curve" smooth="yes"/>
      <point x="468" y="447"/>
      <point x="462" y="439"/>
      <point x="457" y="433" type="curve" smooth="yes"/>
      <point x="436" y="408"/>
      <point x="420" y="392"/>
      <point x="400" y="371" type="curve" smooth="yes"/>
      <point x="387" y="358"/>
      <point x="364" y="345"/>
      <point x="345" y="345" type="curve"/>
      <point x="325" y="345"/>
      <point x="300" y="343"/>
      <point x="280" y="343" type="curve"/>
      <point x="288" y="312"/>
      <point x="294" y="286"/>
      <point x="294" y="261" type="curve" smooth="yes"/>
      <point x="294" y="228"/>
      <point x="277" y="202"/>
      <point x="262" y="179" type="curve" smooth="yes"/>
      <point x="260" y="175"/>
      <point x="259" y="172"/>
      <point x="259" y="170" type="curve" smooth="yes"/>
      <point x="259" y="167"/>
      <point x="261" y="165"/>
      <point x="265" y="165" type="curve" smooth="yes"/>
      <point x="316" y="165"/>
      <point x="366" y="149"/>
      <point x="415" y="149" type="curve" smooth="yes"/>
      <point x="471" y="149"/>
      <point x="525" y="188"/>
      <point x="530" y="190" type="curve" smooth="yes"/>
      <point x="535" y="192"/>
      <point x="538" y="193"/>
      <point x="541" y="193" type="curve" smooth="yes"/>
      <point x="548" y="193"/>
      <point x="550" y="187"/>
      <point x="550" y="183" type="curve" smooth="yes"/>
      <point x="550" y="177"/>
      <point x="545" y="164"/>
      <point x="542" y="157" type="curve" smooth="yes"/>
      <point x="529" y="127"/>
      <point x="504" y="76"/>
      <point x="486" y="42" type="curve" smooth="yes"/>
      <point x="479" y="29"/>
      <point x="455" y="8"/>
      <point x="434" y="1" type="curve" smooth="yes"/>
      <point x="405" y="-8"/>
      <point x="390" y="-16"/>
      <point x="337" y="-16" type="curve" smooth="yes"/>
      <point x="270" y="-16"/>
      <point x="209" y="7"/>
      <point x="146" y="7" type="curve" smooth="yes"/>
      <point x="128" y="7"/>
      <point x="70" y="-2"/>
      <point x="52" y="-2" type="curve" smooth="yes"/>
      <point x="43" y="-2"/>
      <point x="37" y="4"/>
      <point x="37" y="15" type="curve" smooth="yes"/>
      <point x="37" y="24"/>
      <point x="67" y="94"/>
      <point x="82" y="127" type="curve" smooth="yes"/>
      <point x="87" y="137"/>
      <point x="91" y="145"/>
      <point x="100" y="149" type="curve" smooth="yes"/>
      <point x="120" y="158"/>
      <point x="149" y="175"/>
      <point x="149" y="197" type="curve" smooth="yes"/>
      <point x="149" y="230"/>
      <point x="134" y="295"/>
      <point x="122" y="340" type="curve" smooth="yes"/>
      <point x="121" y="344"/>
      <point x="117" y="344"/>
      <point x="113" y="344" type="curve" smooth="yes"/>
      <point x="93" y="344"/>
      <point x="77" y="343"/>
      <point x="60" y="343" type="curve" smooth="yes"/>
      <point x="54" y="343"/>
      <point x="49" y="347"/>
      <point x="49" y="354" type="curve" smooth="yes"/>
      <point x="49" y="361"/>
      <point x="56" y="368"/>
      <point x="59" y="373" type="curve" smooth="yes"/>
      <point x="73" y="396"/>
      <point x="82" y="410"/>
      <point x="97" y="437" type="curve" smooth="yes"/>
      <point x="98" y="438"/>
      <point x="102" y="444"/>
      <point x="102" y="450" type="curve" smooth="yes"/>
      <point x="102" y="452"/>
      <point x="99" y="461"/>
      <point x="98" y="463" type="curve" smooth="yes"/>
      <point x="87" y="494"/>
      <point x="84" y="520"/>
      <point x="84" y="533" type="curve" smooth="yes"/>
      <point x="84" y="576"/>
      <point x="101" y="601"/>
      <point x="112" y="618" type="curve" smooth="yes"/>
      <point x="165" y="703"/>
      <point x="207" y="728"/>
      <point x="264" y="760" type="curve" smooth="yes"/>
      <point x="282" y="770"/>
      <point x="309" y="779"/>
      <point x="342" y="779" type="curve" smooth="yes"/>
      <point x="412" y="779"/>
      <point x="450" y="758"/>
    </contour>
  </outline>
</glyph>
<glyph name="guillemotleft" format="1">
  <advance width="400"/>
  <unicode hex="00AB"/>
  <outline>
    <contour>
      <point x="74" y="368" type="curve" smooth="yes"/>
      <point x="58" y="348"/>
      <point x="25" y="299"/>
      <point x="13" y="274" type="curve" smooth="yes"/>
      <point x="11" y="270"/>
      <point x="9" y="264"/>
      <point x="9" y="259" type="curve" smooth="yes"/>
      <point x="9" y="253"/>
      <point x="11" y="247"/>
      <point x="18" y="236" type="curve" smooth="yes"/>
      <point x="33" y="211"/>
      <point x="88" y="151"/>
      <point x="115" y="128" type="curve" smooth="yes"/>
      <point x="120" y="124"/>
      <point x="123" y="123"/>
      <point x="125" y="123" type="curve" smooth="yes"/>
      <point x="128" y="123"/>
      <point x="132" y="125"/>
      <point x="135" y="128" type="curve" smooth="yes"/>
      <point x="152" y="147"/>
      <point x="178" y="186"/>
      <point x="185" y="198" type="curve"/>
      <point x="185" y="198"/>
      <point x="191" y="209"/>
      <point x="191" y="214" type="curve" smooth="yes"/>
      <point x="191" y="217"/>
      <point x="190" y="222"/>
      <point x="187" y="225" type="curve"/>
      <point x="139" y="279" type="line"/>
      <point x="136" y="282"/>
      <point x="134" y="288"/>
      <point x="134" y="291" type="curve" smooth="yes"/>
      <point x="134" y="294"/>
      <point x="134" y="298"/>
      <point x="137" y="303" type="curve" smooth="yes"/>
      <point x="149" y="327"/>
      <point x="171" y="380"/>
      <point x="183" y="405" type="curve" smooth="yes"/>
      <point x="185" y="409"/>
      <point x="186" y="413"/>
      <point x="186" y="416" type="curve" smooth="yes"/>
      <point x="186" y="420"/>
      <point x="182" y="423"/>
      <point x="177" y="423" type="curve" smooth="yes"/>
      <point x="175" y="423"/>
      <point x="172" y="423"/>
      <point x="168" y="421" type="curve" smooth="yes"/>
      <point x="160" y="418"/>
      <point x="110" y="394"/>
      <point x="105" y="391" type="curve" smooth="yes"/>
      <point x="98" y="387"/>
      <point x="83" y="380"/>
    </contour>
    <contour>
      <point x="280" y="368" type="curve" smooth="yes"/>
      <point x="264" y="348"/>
      <point x="231" y="299"/>
      <point x="219" y="274" type="curve" smooth="yes"/>
      <point x="217" y="270"/>
      <point x="215" y="264"/>
      <point x="215" y="259" type="curve" smooth="yes"/>
      <point x="215" y="253"/>
      <point x="217" y="247"/>
      <point x="224" y="236" type="curve" smooth="yes"/>
      <point x="239" y="211"/>
      <point x="294" y="151"/>
      <point x="321" y="128" type="curve" smooth="yes"/>
      <point x="326" y="124"/>
      <point x="329" y="123"/>
      <point x="331" y="123" type="curve" smooth="yes"/>
      <point x="334" y="123"/>
      <point x="338" y="125"/>
      <point x="341" y="128" type="curve" smooth="yes"/>
      <point x="358" y="147"/>
      <point x="384" y="186"/>
      <point x="391" y="198" type="curve"/>
      <point x="391" y="198"/>
      <point x="397" y="209"/>
      <point x="397" y="214" type="curve" smooth="yes"/>
      <point x="397" y="217"/>
      <point x="396" y="222"/>
      <point x="393" y="225" type="curve" smooth="yes"/>
      <point x="345" y="279" type="line" smooth="yes"/>
      <point x="342" y="282"/>
      <point x="340" y="288"/>
      <point x="340" y="291" type="curve" smooth="yes"/>
      <point x="340" y="294"/>
      <point x="340" y="298"/>
      <point x="343" y="303" type="curve" smooth="yes"/>
      <point x="355" y="327"/>
      <point x="377" y="380"/>
      <point x="389" y="405" type="curve" smooth="yes"/>
      <point x="391" y="409"/>
      <point x="392" y="413"/>
      <point x="392" y="416" type="curve" smooth="yes"/>
      <point x="392" y="420"/>
      <point x="388" y="423"/>
      <point x="383" y="423" type="curve" smooth="yes"/>
      <point x="381" y="423"/>
      <point x="378" y="423"/>
      <point x="374" y="421" type="curve" smooth="yes"/>
      <point x="366" y="418"/>
      <point x="316" y="394"/>
      <point x="311" y="391" type="curve" smooth="yes"/>
      <point x="304" y="387"/>
      <point x="289" y="380"/>
    </contour>
  </outline>
</glyph>
<glyph name="divide" format="1">
  <advance width="568"/>
  <unicode hex="00F7"/>
  <outline>
    <contour>
      <point x="335" y="466" type="curve" smooth="yes"/>
      <point x="335" y="440"/>
      <point x="312" y="418"/>
      <point x="286" y="418" type="curve" smooth="yes"/>
      <point x="258" y="418"/>
      <point x="236" y="440"/>
      <point x="236" y="466" type="curve" smooth="yes"/>
      <point x="236" y="493"/>
      <point x="258" y="515"/>
      <point x="286" y="515" type="curve" smooth="yes"/>
      <point x="312" y="515"/>
      <point x="335" y="493"/>
    </contour>
    <contour>
      <point x="334" y="166" type="curve" smooth="yes"/>
      <point x="334" y="140"/>
      <point x="311" y="118"/>
      <point x="285" y="118" type="curve" smooth="yes"/>
      <point x="257" y="118"/>
      <point x="235" y="140"/>
      <point x="235" y="166" type="curve" smooth="yes"/>
      <point x="235" y="193"/>
      <point x="257" y="215"/>
      <point x="285" y="215" type="curve" smooth="yes"/>
      <point x="311" y="215"/>
      <point x="334" y="193"/>
    </contour>
    <component base="minus"/>
  </outline>
</glyph>
<glyph name="uni0599" format="1">
  <advance width="0"/>
  <unicode hex="0599"/>
  <outline>
    <contour>
      <point x="110" y="886" type="curve" smooth="yes"/>
      <point x="199" y="851"/>
      <point x="217" y="775"/>
      <point x="217" y="682" type="curve" smooth="yes"/>
      <point x="217" y="670"/>
      <point x="211" y="667"/>
      <point x="202" y="667" type="curve" smooth="yes"/>
      <point x="178" y="667" type="line" smooth="yes"/>
      <point x="169" y="667"/>
      <point x="164" y="670"/>
      <point x="164" y="682" type="curve" smooth="yes"/>
      <point x="164" y="765"/>
      <point x="146" y="807"/>
      <point x="83" y="835" type="curve" smooth="yes"/>
      <point x="77" y="838"/>
      <point x="74" y="841"/>
      <point x="74" y="845" type="curve" smooth="yes"/>
      <point x="74" y="848"/>
      <point x="76" y="853"/>
      <point x="78" y="856" type="curve"/>
      <point x="88" y="881" type="line"/>
      <point x="91" y="886"/>
      <point x="95" y="889"/>
      <point x="100" y="889" type="curve" smooth="yes"/>
      <point x="103" y="889"/>
      <point x="106" y="888"/>
    </contour>
  </outline>
</glyph>
<glyph name="uni059A" format="1">
  <advance width="0"/>
  <unicode hex="059A"/>
  <outline>
    <contour>
      <point x="53" y="-156" type="curve" smooth="yes"/>
      <point x="93" y="-133"/>
      <point x="180" y="-84"/>
      <point x="216" y="-69" type="curve" smooth="yes"/>
      <point x="220" y="-67"/>
      <point x="223" y="-66"/>
      <point x="226" y="-66" type="curve" smooth="yes"/>
      <point x="229" y="-66"/>
      <point x="232" y="-68"/>
      <point x="234" y="-71" type="curve"/>
      <point x="247" y="-95" type="line" smooth="yes"/>
      <point x="248" y="-97"/>
      <point x="249" y="-99"/>
      <point x="249" y="-101" type="curve" smooth="yes"/>
      <point x="249" y="-105"/>
      <point x="246" y="-109"/>
      <point x="239" y="-114" type="curve" smooth="yes"/>
      <point x="201" y="-139"/>
      <point x="147" y="-165"/>
      <point x="122" y="-182" type="curve"/>
      <point x="145" y="-196"/>
      <point x="203" y="-226"/>
      <point x="241" y="-250" type="curve" smooth="yes"/>
      <point x="248" y="-255"/>
      <point x="251" y="-259"/>
      <point x="251" y="-263" type="curve" smooth="yes"/>
      <point x="251" y="-265"/>
      <point x="250" y="-267"/>
      <point x="249" y="-269" type="curve"/>
      <point x="235" y="-293" type="line"/>
      <point x="233" y="-296"/>
      <point x="230" y="-298"/>
      <point x="227" y="-298" type="curve" smooth="yes"/>
      <point x="224" y="-298"/>
      <point x="221" y="-297"/>
      <point x="217" y="-295" type="curve" smooth="yes"/>
      <point x="181" y="-280"/>
      <point x="90" y="-229"/>
      <point x="53" y="-208" type="curve" smooth="yes"/>
      <point x="47" y="-205"/>
      <point x="44" y="-200"/>
      <point x="44" y="-195" type="curve" smooth="yes"/>
      <point x="44" y="-170" type="line" smooth="yes"/>
      <point x="44" y="-165"/>
      <point x="47" y="-159"/>
    </contour>
  </outline>
</glyph>
<glyph name="uni059E" format="1">
  <advance width="0"/>
  <unicode hex="059E"/>
  <outline>
    <contour>
      <point x="180" y="891" type="curve" smooth="yes"/>
      <point x="102" y="858"/>
      <point x="76" y="784"/>
      <point x="76" y="691" type="curve" smooth="yes"/>
      <point x="76" y="679"/>
      <point x="82" y="676"/>
      <point x="91" y="676" type="curve" smooth="yes"/>
      <point x="115" y="676" type="line" smooth="yes"/>
      <point x="124" y="676"/>
      <point x="129" y="679"/>
      <point x="129" y="691" type="curve" smooth="yes"/>
      <point x="129" y="774"/>
      <point x="152" y="821"/>
      <point x="206" y="840" type="curve" smooth="yes"/>
      <point x="212" y="842"/>
      <point x="215" y="846"/>
      <point x="215" y="850" type="curve" smooth="yes"/>
      <point x="215" y="853"/>
      <point x="213" y="858"/>
      <point x="211" y="861" type="curve" smooth="yes"/>
      <point x="201" y="886" type="line" smooth="yes"/>
      <point x="198" y="891"/>
      <point x="194" y="894"/>
      <point x="189" y="894" type="curve" smooth="yes"/>
      <point x="186" y="894"/>
      <point x="184" y="893"/>
    </contour>
    <contour>
      <point x="289" y="875" type="curve" smooth="yes"/>
      <point x="201" y="846"/>
      <point x="185" y="784"/>
      <point x="185" y="691" type="curve" smooth="yes"/>
      <point x="185" y="679"/>
      <point x="191" y="676"/>
      <point x="200" y="676" type="curve" smooth="yes"/>
      <point x="224" y="676" type="line" smooth="yes"/>
      <point x="233" y="676"/>
      <point x="238" y="679"/>
      <point x="238" y="691" type="curve" smooth="yes"/>
      <point x="238" y="774"/>
      <point x="252" y="804"/>
      <point x="315" y="824" type="curve" smooth="yes"/>
      <point x="321" y="826"/>
      <point x="324" y="830"/>
      <point x="324" y="834" type="curve" smooth="yes"/>
      <point x="324" y="837"/>
      <point x="322" y="842"/>
      <point x="320" y="845" type="curve"/>
      <point x="310" y="870" type="line"/>
      <point x="307" y="875"/>
      <point x="303" y="878"/>
      <point x="298" y="878" type="curve" smooth="yes"/>
      <point x="295" y="878"/>
      <point x="293" y="876"/>
    </contour>
  </outline>
</glyph>
<glyph name="uni05A0" format="1">
  <advance width="0"/>
  <unicode hex="05A0"/>
  <outline>
    <contour>
      <point x="338" y="804" type="curve" smooth="yes"/>
      <point x="338" y="744"/>
      <point x="291" y="697"/>
      <point x="231" y="697" type="curve" smooth="yes"/>
      <point x="219" y="697"/>
      <point x="207" y="699"/>
      <point x="196" y="702" type="curve"/>
      <point x="180" y="683"/>
      <point x="161" y="660"/>
      <point x="155" y="654" type="curve" smooth="yes"/>
      <point x="150" y="649"/>
      <point x="146" y="647"/>
      <point x="143" y="647" type="curve" smooth="yes"/>
      <point x="140" y="647"/>
      <point x="138" y="648"/>
      <point x="135" y="650" type="curve" smooth="yes"/>
      <point x="117" y="662" type="line" smooth="yes"/>
      <point x="113" y="665"/>
      <point x="110" y="668"/>
      <point x="110" y="672" type="curve" smooth="yes"/>
      <point x="110" y="675"/>
      <point x="112" y="679"/>
      <point x="114" y="683" type="curve" smooth="yes"/>
      <point x="115" y="686"/>
      <point x="132" y="714"/>
      <point x="146" y="737" type="curve"/>
      <point x="131" y="755"/>
      <point x="123" y="778"/>
      <point x="123" y="804" type="curve" smooth="yes"/>
      <point x="123" y="864"/>
      <point x="171" y="912"/>
      <point x="231" y="912" type="curve" smooth="yes"/>
      <point x="291" y="912"/>
      <point x="338" y="864"/>
    </contour>
    <contour>
      <point x="289" y="804" type="curve" smooth="yes"/>
      <point x="289" y="836"/>
      <point x="263" y="862"/>
      <point x="232" y="862" type="curve" smooth="yes"/>
      <point x="200" y="862"/>
      <point x="174" y="836"/>
      <point x="174" y="804" type="curve" smooth="yes"/>
      <point x="174" y="773"/>
      <point x="200" y="747"/>
      <point x="232" y="747" type="curve" smooth="yes"/>
      <point x="263" y="747"/>
      <point x="289" y="773"/>
    </contour>
  </outline>
</glyph>
<glyph name="uni05A3" format="1">
  <advance width="0"/>
  <unicode hex="05A3"/>
  <outline>
    <contour>
      <point x="233" y="-88" type="curve" smooth="yes"/>
      <point x="232" y="-76"/>
      <point x="228" y="-73"/>
      <point x="219" y="-73" type="curve" smooth="yes"/>
      <point x="195" y="-73" type="line" smooth="yes"/>
      <point x="186" y="-73"/>
      <point x="181" y="-76"/>
      <point x="181" y="-88" type="curve" smooth="yes"/>
      <point x="181" y="-117"/>
      <point x="180" y="-163"/>
      <point x="180" y="-191" type="curve" smooth="yes"/>
      <point x="180" y="-202"/>
      <point x="175" y="-204"/>
      <point x="171" y="-204" type="curve" smooth="yes"/>
      <point x="138" y="-205"/>
      <point x="83" y="-206"/>
      <point x="72" y="-208" type="curve" smooth="yes"/>
      <point x="62" y="-210"/>
      <point x="58" y="-215"/>
      <point x="58" y="-225" type="curve" smooth="yes"/>
      <point x="58" y="-248" type="line" smooth="yes"/>
      <point x="58" y="-256"/>
      <point x="60" y="-264"/>
      <point x="72" y="-264" type="curve" smooth="yes"/>
      <point x="93" y="-265"/>
      <point x="115" y="-265"/>
      <point x="136" y="-265" type="curve" smooth="yes"/>
      <point x="179" y="-265"/>
      <point x="200" y="-265"/>
      <point x="222" y="-263" type="curve" smooth="yes"/>
      <point x="232" y="-262"/>
      <point x="236" y="-256"/>
      <point x="236" y="-246" type="curve" smooth="yes"/>
      <point x="236" y="-189"/>
      <point x="236" y="-139"/>
    </contour>
  </outline>
</glyph>
<glyph name="uni05AC" format="1">
  <advance width="0"/>
  <unicode hex="05AC"/>
  <outline>
    <contour>
      <point x="233" y="814" type="curve" smooth="yes"/>
      <point x="232" y="826"/>
      <point x="228" y="829"/>
      <point x="219" y="829" type="curve" smooth="yes"/>
      <point x="195" y="829" type="line" smooth="yes"/>
      <point x="186" y="829"/>
      <point x="181" y="826"/>
      <point x="181" y="814" type="curve" smooth="yes"/>
      <point x="181" y="785"/>
      <point x="180" y="739"/>
      <point x="180" y="711" type="curve" smooth="yes"/>
      <point x="180" y="700"/>
      <point x="175" y="698"/>
      <point x="171" y="698" type="curve" smooth="yes"/>
      <point x="138" y="697"/>
      <point x="83" y="696"/>
      <point x="72" y="694" type="curve" smooth="yes"/>
      <point x="62" y="692"/>
      <point x="58" y="687"/>
      <point x="58" y="677" type="curve" smooth="yes"/>
      <point x="58" y="654" type="line" smooth="yes"/>
      <point x="58" y="646"/>
      <point x="60" y="638"/>
      <point x="72" y="638" type="curve" smooth="yes"/>
      <point x="93" y="637"/>
      <point x="115" y="637"/>
      <point x="136" y="637" type="curve" smooth="yes"/>
      <point x="179" y="637"/>
      <point x="200" y="637"/>
      <point x="222" y="639" type="curve" smooth="yes"/>
      <point x="232" y="640"/>
      <point x="236" y="646"/>
      <point x="236" y="656" type="curve" smooth="yes"/>
      <point x="236" y="713"/>
      <point x="236" y="763"/>
    </contour>
  </outline>
</glyph>
<glyph name="shevahebrew" format="1">
  <advance width="0"/>
  <unicode hex="05B0"/>
  <outline>
    <contour>
      <point x="244" y="-106" type="curve" smooth="yes"/>
      <point x="244" y="-129"/>
      <point x="226" y="-147"/>
      <point x="203" y="-147" type="curve" smooth="yes"/>
      <point x="181" y="-147"/>
      <point x="163" y="-129"/>
      <point x="163" y="-106" type="curve" smooth="yes"/>
      <point x="163" y="-84"/>
      <point x="181" y="-66"/>
      <point x="203" y="-66" type="curve" smooth="yes"/>
      <point x="226" y="-66"/>
      <point x="244" y="-84"/>
    </contour>
    <contour>
      <point x="244" y="-230" type="curve" smooth="yes"/>
      <point x="244" y="-253"/>
      <point x="226" y="-271"/>
      <point x="203" y="-271" type="curve" smooth="yes"/>
      <point x="181" y="-271"/>
      <point x="163" y="-253"/>
      <point x="163" y="-230" type="curve" smooth="yes"/>
      <point x="163" y="-208"/>
      <point x="181" y="-190"/>
      <point x="203" y="-190" type="curve" smooth="yes"/>
      <point x="226" y="-190"/>
      <point x="244" y="-208"/>
    </contour>
  </outline>
</glyph>
<glyph name="hatafsegolhebrew" format="1">
  <advance width="0"/>
  <unicode hex="05B1"/>
  <outline>
    <contour>
      <point x="94" y="-106" type="curve" smooth="yes"/>
      <point x="94" y="-129"/>
      <point x="76" y="-147"/>
      <point x="54" y="-147" type="curve" smooth="yes"/>
      <point x="31" y="-147"/>
      <point x="13" y="-129"/>
      <point x="13" y="-106" type="curve" smooth="yes"/>
      <point x="13" y="-84"/>
      <point x="31" y="-66"/>
      <point x="54" y="-66" type="curve" smooth="yes"/>
      <point x="76" y="-66"/>
      <point x="94" y="-84"/>
    </contour>
    <contour>
      <point x="235" y="-106" type="curve" smooth="yes"/>
      <point x="235" y="-129"/>
      <point x="217" y="-147"/>
      <point x="194" y="-147" type="curve" smooth="yes"/>
      <point x="172" y="-147"/>
      <point x="153" y="-129"/>
      <point x="153" y="-106" type="curve" smooth="yes"/>
      <point x="153" y="-84"/>
      <point x="172" y="-66"/>
      <point x="194" y="-66" type="curve" smooth="yes"/>
      <point x="217" y="-66"/>
      <point x="235" y="-84"/>
    </contour>
    <contour>
      <point x="373" y="-106" type="curve" smooth="yes"/>
      <point x="373" y="-129"/>
      <point x="355" y="-147"/>
      <point x="332" y="-147" type="curve" smooth="yes"/>
      <point x="310" y="-147"/>
      <point x="292" y="-129"/>
      <point x="292" y="-106" type="curve" smooth="yes"/>
      <point x="292" y="-84"/>
      <point x="310" y="-66"/>
      <point x="332" y="-66" type="curve" smooth="yes"/>
      <point x="355" y="-66"/>
      <point x="373" y="-84"/>
    </contour>
    <contour>
      <point x="373" y="-230" type="curve" smooth="yes"/>
      <point x="373" y="-253"/>
      <point x="355" y="-271"/>
      <point x="332" y="-271" type="curve" smooth="yes"/>
      <point x="310" y="-271"/>
      <point x="292" y="-253"/>
      <point x="292" y="-230" type="curve" smooth="yes"/>
      <point x="292" y="-208"/>
      <point x="310" y="-190"/>
      <point x="332" y="-190" type="curve" smooth="yes"/>
      <point x="355" y="-190"/>
      <point x="373" y="-208"/>
    </contour>
    <contour>
      <point x="164" y="-230" type="curve" smooth="yes"/>
      <point x="164" y="-253"/>
      <point x="145" y="-271"/>
      <point x="123" y="-271" type="curve" smooth="yes"/>
      <point x="100" y="-271"/>
      <point x="82" y="-253"/>
      <point x="82" y="-230" type="curve" smooth="yes"/>
      <point x="82" y="-208"/>
      <point x="100" y="-189"/>
      <point x="123" y="-189" type="curve" smooth="yes"/>
      <point x="145" y="-189"/>
      <point x="164" y="-208"/>
    </contour>
  </outline>
</glyph>
<glyph name="hiriqhebrew" format="1">
  <advance width="0"/>
  <unicode hex="05B4"/>
  <outline>
    <contour>
      <point x="131" y="-126" type="curve" smooth="yes"/>
      <point x="131" y="-149"/>
      <point x="113" y="-167"/>
      <point x="91" y="-167" type="curve" smooth="yes"/>
      <point x="68" y="-167"/>
      <point x="50" y="-149"/>
      <point x="50" y="-126" type="curve" smooth="yes"/>
      <point x="50" y="-104"/>
      <point x="68" y="-85"/>
      <point x="91" y="-85" type="curve" smooth="yes"/>
      <point x="113" y="-85"/>
      <point x="131" y="-104"/>
    </contour>
  </outline>
</glyph>
<glyph name="alefhebrew" format="1">
  <advance width="726"/>
  <unicode hex="05D0"/>
  <outline>
    <contour>
      <point x="96" y="20" type="curve" smooth="yes"/>
      <point x="101" y="32"/>
      <point x="114" y="69"/>
      <point x="114" y="82" type="curve" smooth="yes"/>
      <point x="114" y="118"/>
      <point x="123" y="182"/>
      <point x="129" y="208" type="curve" smooth="yes"/>
      <point x="141" y="264"/>
      <point x="164" y="308"/>
      <point x="197" y="352" type="curve" smooth="yes"/>
      <point x="198" y="353"/>
      <point x="200" y="357"/>
      <point x="200" y="359" type="curve" smooth="yes"/>
      <point x="200" y="361"/>
      <point x="194" y="368"/>
      <point x="190" y="371" type="curve" smooth="yes"/>
      <point x="162" y="396"/>
      <point x="109" y="440"/>
      <point x="89" y="457" type="curve" smooth="yes"/>
      <point x="82" y="463"/>
      <point x="80" y="466"/>
      <point x="80" y="471" type="curve" smooth="yes"/>
      <point x="80" y="474"/>
      <point x="81" y="477"/>
      <point x="82" y="479" type="curve" smooth="yes"/>
      <point x="97" y="506"/>
      <point x="129" y="560"/>
      <point x="161" y="595" type="curve" smooth="yes"/>
      <point x="166" y="600"/>
      <point x="171" y="603"/>
      <point x="177" y="603" type="curve" smooth="yes"/>
      <point x="181" y="603"/>
      <point x="185" y="601"/>
      <point x="189" y="599" type="curve" smooth="yes"/>
      <point x="257" y="556"/>
      <point x="405" y="418"/>
      <point x="501" y="321" type="curve" smooth="yes"/>
      <point x="504" y="318"/>
      <point x="508" y="314"/>
      <point x="511" y="314" type="curve" smooth="yes"/>
      <point x="516" y="314"/>
      <point x="520" y="319"/>
      <point x="520" y="333" type="curve" smooth="yes"/>
      <point x="520" y="365"/>
      <point x="516" y="405"/>
      <point x="505" y="431" type="curve" smooth="yes"/>
      <point x="499" y="445"/>
      <point x="492" y="455"/>
      <point x="492" y="462" type="curve" smooth="yes"/>
      <point x="492" y="467"/>
      <point x="494" y="473"/>
      <point x="497" y="477" type="curve" smooth="yes"/>
      <point x="517" y="509"/>
      <point x="554" y="560"/>
      <point x="593" y="597" type="curve" smooth="yes"/>
      <point x="596" y="600"/>
      <point x="599" y="603"/>
      <point x="604" y="603" type="curve" smooth="yes"/>
      <point x="609" y="603"/>
      <point x="613" y="597"/>
      <point x="616" y="592" type="curve" smooth="yes"/>
      <point x="636" y="558"/>
      <point x="652" y="518"/>
      <point x="652" y="465" type="curve" smooth="yes"/>
      <point x="652" y="422"/>
      <point x="643" y="396"/>
      <point x="629" y="365" type="curve" smooth="yes"/>
      <point x="615" y="333"/>
      <point x="592" y="297"/>
      <point x="568" y="263" type="curve" smooth="yes"/>
      <point x="567" y="261"/>
      <point x="567" y="259"/>
      <point x="567" y="258" type="curve" smooth="yes"/>
      <point x="567" y="255"/>
      <point x="568" y="253"/>
      <point x="570" y="251" type="curve" smooth="yes"/>
      <point x="611" y="209"/>
      <point x="682" y="127"/>
      <point x="685" y="122" type="curve" smooth="yes"/>
      <point x="688" y="118"/>
      <point x="689" y="116"/>
      <point x="689" y="114" type="curve" smooth="yes"/>
      <point x="689" y="109"/>
      <point x="687" y="105"/>
      <point x="685" y="100" type="curve" smooth="yes"/>
      <point x="668" y="57"/>
      <point x="627" y="-10"/>
      <point x="619" y="-19" type="curve" smooth="yes"/>
      <point x="616" y="-22"/>
      <point x="613" y="-25"/>
      <point x="609" y="-25" type="curve" smooth="yes"/>
      <point x="605" y="-25"/>
      <point x="602" y="-22"/>
      <point x="600" y="-20" type="curve" smooth="yes"/>
      <point x="559" y="27"/>
      <point x="496" y="95"/>
      <point x="419" y="171" type="curve" smooth="yes"/>
      <point x="355" y="233"/>
      <point x="303" y="278"/>
      <point x="275" y="302" type="curve" smooth="yes"/>
      <point x="269" y="307"/>
      <point x="264" y="312"/>
      <point x="261" y="312" type="curve" smooth="yes"/>
      <point x="258" y="312"/>
      <point x="253" y="306"/>
      <point x="249" y="296" type="curve" smooth="yes"/>
      <point x="245" y="284"/>
      <point x="236" y="244"/>
      <point x="236" y="213" type="curve" smooth="yes"/>
      <point x="236" y="192"/>
      <point x="238" y="178"/>
      <point x="243" y="171" type="curve" smooth="yes"/>
      <point x="247" y="166"/>
      <point x="256" y="164"/>
      <point x="260" y="164" type="curve" smooth="yes"/>
      <point x="321" y="164" type="line"/>
      <point x="329" y="164"/>
      <point x="334" y="158"/>
      <point x="334" y="148" type="curve" smooth="yes"/>
      <point x="334" y="132"/>
      <point x="299" y="50"/>
      <point x="276" y="15" type="curve" smooth="yes"/>
      <point x="271" y="7"/>
      <point x="263" y="0"/>
      <point x="250" y="0" type="curve" smooth="yes"/>
      <point x="104" y="0" type="line"/>
      <point x="97" y="0"/>
      <point x="93" y="3"/>
      <point x="93" y="9" type="curve" smooth="yes"/>
      <point x="93" y="12"/>
      <point x="94" y="16"/>
    </contour>
  </outline>
</glyph>
<glyph name="zayinhebrew" format="1">
  <advance width="407"/>
  <unicode hex="05D6"/>
  <outline>
    <contour>
      <point x="106" y="267" type="curve" smooth="yes"/>
      <point x="104" y="275"/>
      <point x="103" y="282"/>
      <point x="103" y="289" type="curve" smooth="yes"/>
      <point x="103" y="305"/>
      <point x="106" y="310"/>
      <point x="112" y="327" type="curve" smooth="yes"/>
      <point x="125" y="363"/>
      <point x="140" y="394"/>
      <point x="140" y="408" type="curve" smooth="yes"/>
      <point x="140" y="415"/>
      <point x="138" y="419"/>
      <point x="131" y="423" type="curve" smooth="yes"/>
      <point x="117" y="432"/>
      <point x="79" y="447"/>
      <point x="69" y="452" type="curve" smooth="yes"/>
      <point x="55" y="458"/>
      <point x="54" y="468"/>
      <point x="54" y="475" type="curve" smooth="yes"/>
      <point x="54" y="493"/>
      <point x="114" y="574"/>
      <point x="131" y="593" type="curve" smooth="yes"/>
      <point x="137" y="600"/>
      <point x="147" y="602"/>
      <point x="153" y="602" type="curve" smooth="yes"/>
      <point x="157" y="602"/>
      <point x="165" y="601"/>
      <point x="173" y="597" type="curve" smooth="yes"/>
      <point x="239" y="565"/>
      <point x="291" y="529"/>
      <point x="343" y="474" type="curve" smooth="yes"/>
      <point x="351" y="465"/>
      <point x="353" y="458"/>
      <point x="353" y="453" type="curve" smooth="yes"/>
      <point x="353" y="449"/>
      <point x="351" y="446"/>
      <point x="350" y="442" type="curve" smooth="yes"/>
      <point x="343" y="421"/>
      <point x="317" y="361"/>
      <point x="294" y="325" type="curve" smooth="yes"/>
      <point x="292" y="322"/>
      <point x="289" y="320"/>
      <point x="285" y="320" type="curve" smooth="yes"/>
      <point x="282" y="320"/>
      <point x="278" y="321"/>
      <point x="274" y="324" type="curve" smooth="yes"/>
      <point x="262" y="336"/>
      <point x="225" y="369"/>
      <point x="216" y="369" type="curve" smooth="yes"/>
      <point x="211" y="369"/>
      <point x="208" y="364"/>
      <point x="208" y="358" type="curve" smooth="yes"/>
      <point x="208" y="353"/>
      <point x="209" y="349"/>
      <point x="210" y="343" type="curve" smooth="yes"/>
      <point x="220" y="283"/>
      <point x="256" y="200"/>
      <point x="275" y="144" type="curve" smooth="yes"/>
      <point x="280" y="131"/>
      <point x="282" y="124"/>
      <point x="282" y="118" type="curve" smooth="yes"/>
      <point x="282" y="112"/>
      <point x="280" y="107"/>
      <point x="278" y="100" type="curve" smooth="yes"/>
      <point x="263" y="47"/>
      <point x="239" y="0"/>
      <point x="227" y="-16" type="curve" smooth="yes"/>
      <point x="225" y="-19"/>
      <point x="220" y="-25"/>
      <point x="216" y="-25" type="curve" smooth="yes"/>
      <point x="208" y="-25"/>
      <point x="201" y="-18"/>
      <point x="195" y="0" type="curve" smooth="yes"/>
      <point x="158" y="104"/>
      <point x="115" y="219"/>
    </contour>
  </outline>
</glyph>
<glyph name="lamedhebrew" format="1">
  <advance width="567"/>
  <unicode hex="05DC"/>
  <outline>
    <contour>
      <point x="175" y="148" type="curve" smooth="yes"/>
      <point x="181" y="156"/>
      <point x="184" y="158"/>
      <point x="193" y="160" type="curve" smooth="yes"/>
      <point x="240" y="171"/>
      <point x="316" y="202"/>
      <point x="341" y="230" type="curve" smooth="yes"/>
      <point x="361" y="254"/>
      <point x="371" y="287"/>
      <point x="371" y="324" type="curve" smooth="yes"/>
      <point x="371" y="362"/>
      <point x="359" y="384"/>
      <point x="324" y="384" type="curve" smooth="yes"/>
      <point x="143" y="384" type="line" smooth="yes"/>
      <point x="76" y="384"/>
      <point x="67" y="403"/>
      <point x="67" y="463" type="curve" smooth="yes"/>
      <point x="67" y="468"/>
      <point x="68" y="490"/>
      <point x="68" y="505" type="curve" smooth="yes"/>
      <point x="68" y="525"/>
      <point x="67" y="547"/>
      <point x="64" y="565" type="curve" smooth="yes"/>
      <point x="59" y="591"/>
      <point x="53" y="611"/>
      <point x="42" y="630" type="curve" smooth="yes"/>
      <point x="40" y="634"/>
      <point x="39" y="637"/>
      <point x="39" y="641" type="curve" smooth="yes"/>
      <point x="39" y="644"/>
      <point x="40" y="648"/>
      <point x="42" y="652" type="curve" smooth="yes"/>
      <point x="56" y="680"/>
      <point x="108" y="739"/>
      <point x="131" y="761" type="curve" smooth="yes"/>
      <point x="135" y="765"/>
      <point x="139" y="768"/>
      <point x="143" y="768" type="curve" smooth="yes"/>
      <point x="155" y="768"/>
      <point x="166" y="756"/>
      <point x="171" y="739" type="curve" smooth="yes"/>
      <point x="180" y="708"/>
      <point x="181" y="616"/>
      <point x="181" y="591" type="curve" smooth="yes"/>
      <point x="181" y="562"/>
      <point x="201" y="552"/>
      <point x="238" y="552" type="curve"/>
      <point x="442" y="552" type="line" smooth="yes"/>
      <point x="490" y="552"/>
      <point x="512" y="525"/>
      <point x="512" y="480" type="curve" smooth="yes"/>
      <point x="512" y="402"/>
      <point x="491" y="328"/>
      <point x="472" y="269" type="curve" smooth="yes"/>
      <point x="436" y="158"/>
      <point x="359" y="60"/>
      <point x="256" y="15" type="curve" smooth="yes"/>
      <point x="217" y="-2"/>
      <point x="145" y="-25"/>
      <point x="126" y="-25" type="curve" smooth="yes"/>
      <point x="117" y="-25"/>
      <point x="113" y="-20"/>
      <point x="113" y="-10" type="curve" smooth="yes"/>
      <point x="113" y="24"/>
      <point x="153" y="119"/>
    </contour>
  </outline>
</glyph>
<glyph name="finalnunhebrew" format="1">
  <advance width="407"/>
  <unicode hex="05DF"/>
  <outline>
    <contour>
      <point x="226" y="99" type="curve" smooth="yes"/>
      <point x="223" y="168"/>
      <point x="214" y="262"/>
      <point x="211" y="276" type="curve" smooth="yes"/>
      <point x="203" y="317"/>
      <point x="191" y="346"/>
      <point x="175" y="366" type="curve" smooth="yes"/>
      <point x="153" y="393"/>
      <point x="110" y="426"/>
      <point x="79" y="449" type="curve" smooth="yes"/>
      <point x="73" y="453"/>
      <point x="69" y="458"/>
      <point x="69" y="463" type="curve" smooth="yes"/>
      <point x="69" y="467"/>
      <point x="72" y="473"/>
      <point x="74" y="477" type="curve" smooth="yes"/>
      <point x="92" y="509"/>
      <point x="117" y="550"/>
      <point x="155" y="598" type="curve" smooth="yes"/>
      <point x="157" y="600"/>
      <point x="162" y="603"/>
      <point x="165" y="603" type="curve" smooth="yes"/>
      <point x="167" y="603"/>
      <point x="173" y="602"/>
      <point x="177" y="599" type="curve" smooth="yes"/>
      <point x="223" y="569"/>
      <point x="264" y="528"/>
      <point x="277" y="511" type="curve" smooth="yes"/>
      <point x="302" y="480"/>
      <point x="307" y="466"/>
      <point x="315" y="422" type="curve" smooth="yes"/>
      <point x="324" y="371"/>
      <point x="330" y="261"/>
      <point x="334" y="150" type="curve" smooth="yes"/>
      <point x="337" y="77"/>
      <point x="338" y="-33"/>
      <point x="338" y="-69" type="curve" smooth="yes"/>
      <point x="338" y="-74"/>
      <point x="337" y="-103"/>
      <point x="335" y="-107" type="curve" smooth="yes"/>
      <point x="323" y="-136"/>
      <point x="286" y="-191"/>
      <point x="272" y="-209" type="curve" smooth="yes"/>
      <point x="260" y="-225"/>
      <point x="251" y="-230"/>
      <point x="246" y="-230" type="curve" smooth="yes"/>
      <point x="239" y="-230"/>
      <point x="234" y="-223"/>
      <point x="234" y="-202" type="curve" smooth="yes"/>
      <point x="234" y="-111"/>
      <point x="230" y="33"/>
    </contour>
  </outline>
</glyph>
<glyph name="tsadihebrew" format="1">
  <advance width="567"/>
  <unicode hex="05E6"/>
  <outline>
    <contour>
      <point x="109" y="150" type="curve" smooth="yes"/>
      <point x="113" y="156"/>
      <point x="123" y="167"/>
      <point x="139" y="167" type="curve" smooth="yes"/>
      <point x="332" y="167" type="line"/>
      <point x="337" y="167"/>
      <point x="344" y="168"/>
      <point x="344" y="174" type="curve" smooth="yes"/>
      <point x="344" y="177"/>
      <point x="341" y="182"/>
      <point x="337" y="185" type="curve" smooth="yes"/>
      <point x="282" y="234"/>
      <point x="162" y="307"/>
      <point x="96" y="388" type="curve" smooth="yes"/>
      <point x="76" y="412"/>
      <point x="53" y="450"/>
      <point x="53" y="462" type="curve" smooth="yes"/>
      <point x="53" y="485"/>
      <point x="124" y="574"/>
      <point x="144" y="595" type="curve" smooth="yes"/>
      <point x="148" y="599"/>
      <point x="151" y="603"/>
      <point x="156" y="603" type="curve" smooth="yes"/>
      <point x="165" y="603"/>
      <point x="169" y="593"/>
      <point x="171" y="587" type="curve" smooth="yes"/>
      <point x="186" y="536"/>
      <point x="213" y="500"/>
      <point x="255" y="458" type="curve" smooth="yes"/>
      <point x="289" y="423"/>
      <point x="338" y="379"/>
      <point x="379" y="348" type="curve" smooth="yes"/>
      <point x="380" y="347"/>
      <point x="381" y="347"/>
      <point x="382" y="347" type="curve" smooth="yes"/>
      <point x="385" y="347"/>
      <point x="388" y="351"/>
      <point x="388" y="356" type="curve" smooth="yes"/>
      <point x="388" y="368"/>
      <point x="385" y="393"/>
      <point x="377" y="418" type="curve" smooth="yes"/>
      <point x="370" y="442"/>
      <point x="360" y="453"/>
      <point x="360" y="462" type="curve" smooth="yes"/>
      <point x="360" y="468"/>
      <point x="362" y="469"/>
      <point x="366" y="476" type="curve" smooth="yes"/>
      <point x="391" y="517"/>
      <point x="438" y="577"/>
      <point x="452" y="592" type="curve" smooth="yes"/>
      <point x="459" y="599"/>
      <point x="463" y="603"/>
      <point x="468" y="603" type="curve" smooth="yes"/>
      <point x="474" y="603"/>
      <point x="480" y="596"/>
      <point x="484" y="592" type="curve" smooth="yes"/>
      <point x="492" y="583"/>
      <point x="515" y="540"/>
      <point x="515" y="486" type="curve" smooth="yes"/>
      <point x="515" y="418"/>
      <point x="495" y="378"/>
      <point x="453" y="310" type="curve" smooth="yes"/>
      <point x="448" y="302"/>
      <point x="445" y="301"/>
      <point x="445" y="294" type="curve" smooth="yes"/>
      <point x="445" y="289"/>
      <point x="449" y="286"/>
      <point x="457" y="277" type="curve" smooth="yes"/>
      <point x="477" y="257"/>
      <point x="518" y="208"/>
      <point x="518" y="186" type="curve" smooth="yes"/>
      <point x="518" y="163"/>
      <point x="487" y="74"/>
      <point x="450" y="12" type="curve" smooth="yes"/>
      <point x="443" y="2"/>
      <point x="434" y="0"/>
      <point x="419" y="0" type="curve" smooth="yes"/>
      <point x="73" y="0" type="line"/>
      <point x="61" y="0"/>
      <point x="52" y="4"/>
      <point x="52" y="13" type="curve" smooth="yes"/>
      <point x="52" y="32"/>
      <point x="91" y="122"/>
    </contour>
  </outline>
</glyph>
<glyph name="shinhebrew" format="1">
  <advance width="726"/>
  <unicode hex="05E9"/>
  <outline>
    <contour>
      <point x="148" y="259" type="curve" smooth="yes"/>
      <point x="128" y="317"/>
      <point x="101" y="381"/>
      <point x="72" y="434" type="curve" smooth="yes"/>
      <point x="67" y="443"/>
      <point x="61" y="456"/>
      <point x="61" y="465" type="curve" smooth="yes"/>
      <point x="61" y="471"/>
      <point x="64" y="479"/>
      <point x="67" y="485" type="curve" smooth="yes"/>
      <point x="82" y="514"/>
      <point x="120" y="567"/>
      <point x="145" y="592" type="curve" smooth="yes"/>
      <point x="150" y="597"/>
      <point x="153" y="602"/>
      <point x="161" y="602" type="curve" smooth="yes"/>
      <point x="171" y="602"/>
      <point x="176" y="596"/>
      <point x="183" y="586" type="curve" smooth="yes"/>
      <point x="194" y="570"/>
      <point x="220" y="498"/>
      <point x="235" y="447" type="curve" smooth="yes"/>
      <point x="250" y="395"/>
      <point x="262" y="345"/>
      <point x="267" y="318" type="curve" smooth="yes"/>
      <point x="267" y="317"/>
      <point x="269" y="308"/>
      <point x="274" y="308" type="curve" smooth="yes"/>
      <point x="294" y="308"/>
      <point x="318" y="348"/>
      <point x="318" y="394" type="curve" smooth="yes"/>
      <point x="318" y="421"/>
      <point x="310" y="446"/>
      <point x="305" y="459" type="curve" smooth="yes"/>
      <point x="303" y="464"/>
      <point x="301" y="469"/>
      <point x="301" y="473" type="curve" smooth="yes"/>
      <point x="301" y="481"/>
      <point x="304" y="485"/>
      <point x="308" y="492" type="curve" smooth="yes"/>
      <point x="329" y="525"/>
      <point x="359" y="566"/>
      <point x="385" y="592" type="curve" smooth="yes"/>
      <point x="389" y="596"/>
      <point x="395" y="602"/>
      <point x="402" y="602" type="curve" smooth="yes"/>
      <point x="410" y="602"/>
      <point x="418" y="598"/>
      <point x="423" y="589" type="curve" smooth="yes"/>
      <point x="436" y="570"/>
      <point x="450" y="504"/>
      <point x="450" y="473" type="curve" smooth="yes"/>
      <point x="450" y="432"/>
      <point x="436" y="414"/>
      <point x="425" y="395" type="curve" smooth="yes"/>
      <point x="404" y="358"/>
      <point x="356" y="304"/>
      <point x="298" y="251" type="curve" smooth="yes"/>
      <point x="297" y="250"/>
      <point x="287" y="243"/>
      <point x="287" y="238" type="curve" smooth="yes"/>
      <point x="287" y="236"/>
      <point x="287" y="233"/>
      <point x="288" y="230" type="curve" smooth="yes"/>
      <point x="293" y="210"/>
      <point x="299" y="183"/>
      <point x="305" y="173" type="curve" smooth="yes"/>
      <point x="313" y="158"/>
      <point x="318" y="151"/>
      <point x="344" y="151" type="curve" smooth="yes"/>
      <point x="400" y="151"/>
      <point x="475" y="193"/>
      <point x="503" y="216" type="curve" smooth="yes"/>
      <point x="533" y="240"/>
      <point x="551" y="257"/>
      <point x="551" y="298" type="curve" smooth="yes"/>
      <point x="551" y="345"/>
      <point x="518" y="438"/>
      <point x="513" y="451" type="curve" smooth="yes"/>
      <point x="510" y="459"/>
      <point x="508" y="466"/>
      <point x="508" y="471" type="curve" smooth="yes"/>
      <point x="508" y="474"/>
      <point x="509" y="478"/>
      <point x="511" y="481" type="curve" smooth="yes"/>
      <point x="528" y="509"/>
      <point x="563" y="560"/>
      <point x="603" y="595" type="curve" smooth="yes"/>
      <point x="607" y="598"/>
      <point x="615" y="602"/>
      <point x="620" y="602" type="curve" smooth="yes"/>
      <point x="633" y="602"/>
      <point x="638" y="592"/>
      <point x="642" y="583" type="curve" smooth="yes"/>
      <point x="655" y="554"/>
      <point x="672" y="474"/>
      <point x="672" y="427" type="curve" smooth="yes"/>
      <point x="672" y="379"/>
      <point x="659" y="338"/>
      <point x="652" y="309" type="curve" smooth="yes"/>
      <point x="628" y="218"/>
      <point x="598" y="169"/>
      <point x="587" y="148" type="curve" smooth="yes"/>
      <point x="571" y="117"/>
      <point x="535" y="72"/>
      <point x="502" y="52" type="curve" smooth="yes"/>
      <point x="464" y="29"/>
      <point x="354" y="-18"/>
      <point x="300" y="-18" type="curve" smooth="yes"/>
      <point x="266" y="-18"/>
      <point x="224" y="7"/>
      <point x="209" y="62" type="curve" smooth="yes"/>
      <point x="194" y="118"/>
      <point x="179" y="169"/>
    </contour>
  </outline>
</glyph>
<glyph name="uni05F3" format="1">
  <advance width="246"/>
  <unicode hex="05F3"/>
  <outline>
    <contour>
      <point x="48" y="495" type="curve" smooth="yes"/>
      <point x="52" y="506"/>
      <point x="95" y="606"/>
      <point x="133" y="660" type="curve" smooth="yes"/>
      <point x="140" y="670"/>
      <point x="148" y="675"/>
      <point x="156" y="675" type="curve" smooth="yes"/>
      <point x="189" y="675" type="line" smooth="yes"/>
      <point x="201" y="675"/>
      <point x="206" y="663"/>
      <point x="206" y="640" type="curve" smooth="yes"/>
      <point x="206" y="584"/>
      <point x="197" y="568"/>
      <point x="179" y="544" type="curve" smooth="yes"/>
      <point x="158" y="515"/>
      <point x="102" y="463"/>
      <point x="86" y="453" type="curve" smooth="yes"/>
      <point x="78" y="448"/>
      <point x="70" y="446"/>
      <point x="62" y="446" type="curve" smooth="yes"/>
      <point x="52" y="446"/>
      <point x="40" y="452"/>
      <point x="40" y="467" type="curve" smooth="yes"/>
      <point x="40" y="475"/>
      <point x="46" y="487"/>
    </contour>
  </outline>
</glyph>
<glyph name="quotedblright" format="1">
  <advance width="562"/>
  <unicode hex="201D"/>
  <outline>
    <contour>
      <point x="79" y="302" type="curve" smooth="yes"/>
      <point x="93" y="341"/>
      <point x="119" y="405"/>
      <point x="127" y="447" type="curve" smooth="yes"/>
      <point x="133" y="481"/>
      <point x="135" y="511"/>
      <point x="135" y="529" type="curve" smooth="yes"/>
      <point x="135" y="539"/>
      <point x="139" y="545"/>
      <point x="144" y="552" type="curve" smooth="yes"/>
      <point x="158" y="571"/>
      <point x="204" y="614"/>
      <point x="232" y="631" type="curve" smooth="yes"/>
      <point x="239" y="635"/>
      <point x="247" y="639"/>
      <point x="256" y="639" type="curve" smooth="yes"/>
      <point x="266" y="638"/>
      <point x="281" y="606"/>
      <point x="281" y="563" type="curve" smooth="yes"/>
      <point x="281" y="509"/>
      <point x="266" y="462"/>
      <point x="223" y="388" type="curve"/>
      <point x="197" y="344"/>
      <point x="154" y="294"/>
      <point x="116" y="267" type="curve" smooth="yes"/>
      <point x="104" y="258"/>
      <point x="98" y="255"/>
      <point x="82" y="255" type="curve" smooth="yes"/>
      <point x="75" y="255"/>
      <point x="69" y="262"/>
      <point x="69" y="269" type="curve" smooth="yes"/>
      <point x="69" y="277"/>
      <point x="75" y="291"/>
    </contour>
    <contour>
      <point x="300" y="302" type="curve" smooth="yes"/>
      <point x="314" y="341"/>
      <point x="340" y="405"/>
      <point x="348" y="447" type="curve" smooth="yes"/>
      <point x="354" y="481"/>
      <point x="356" y="511"/>
      <point x="356" y="529" type="curve" smooth="yes"/>
      <point x="356" y="539"/>
      <point x="360" y="545"/>
      <point x="365" y="552" type="curve" smooth="yes"/>
      <point x="379" y="571"/>
      <point x="425" y="614"/>
      <point x="453" y="631" type="curve" smooth="yes"/>
      <point x="460" y="635"/>
      <point x="468" y="639"/>
      <point x="477" y="639" type="curve" smooth="yes"/>
      <point x="487" y="638"/>
      <point x="502" y="606"/>
      <point x="502" y="563" type="curve" smooth="yes"/>
      <point x="502" y="509"/>
      <point x="487" y="462"/>
      <point x="444" y="388" type="curve" smooth="yes"/>
      <point x="418" y="344"/>
      <point x="375" y="294"/>
      <point x="337" y="267" type="curve" smooth="yes"/>
      <point x="325" y="258"/>
      <point x="319" y="255"/>
      <point x="303" y="255" type="curve" smooth="yes"/>
      <point x="296" y="255"/>
      <point x="290" y="262"/>
      <point x="290" y="269" type="curve" smooth="yes"/>
      <point x="290" y="277"/>
      <point x="296" y="291"/>
    </contour>
  </outline>
</glyph>
<glyph name="dagger" format="1">
  <advance width="369"/>
  <unicode hex="2020"/>
  <outline>
    <contour>
      <point x="269" y="390" type="line" smooth="yes"/>
      <point x="279" y="390"/>
      <point x="287" y="392"/>
      <point x="297" y="407" type="curve" smooth="yes"/>
      <point x="309" y="424"/>
      <point x="329" y="477"/>
      <point x="329" y="487" type="curve" smooth="yes"/>
      <point x="329" y="497"/>
      <point x="322" y="500"/>
      <point x="312" y="500" type="curve" smooth="yes"/>
      <point x="232" y="500" type="line" smooth="yes"/>
      <point x="226" y="500"/>
      <point x="223" y="501"/>
      <point x="223" y="507" type="curve" smooth="yes"/>
      <point x="221" y="549"/>
      <point x="220" y="577"/>
      <point x="219" y="610" type="curve" smooth="yes"/>
      <point x="219" y="616"/>
      <point x="216" y="622"/>
      <point x="207" y="622" type="curve" smooth="yes"/>
      <point x="171" y="622" type="line" smooth="yes"/>
      <point x="162" y="622"/>
      <point x="160" y="615"/>
      <point x="160" y="609" type="curve" smooth="yes"/>
      <point x="159" y="578"/>
      <point x="156" y="551"/>
      <point x="153" y="510" type="curve" smooth="yes"/>
      <point x="153" y="504"/>
      <point x="150" y="500"/>
      <point x="145" y="500" type="curve" smooth="yes"/>
      <point x="106" y="500" type="line" smooth="yes"/>
      <point x="98" y="500"/>
      <point x="91" y="496"/>
      <point x="83" y="486" type="curve" smooth="yes"/>
      <point x="67" y="468"/>
      <point x="40" y="411"/>
      <point x="40" y="399" type="curve" smooth="yes"/>
      <point x="40" y="392"/>
      <point x="48" y="390"/>
      <point x="56" y="390" type="curve" smooth="yes"/>
      <point x="139" y="390" type="line" smooth="yes"/>
      <point x="147" y="390"/>
      <point x="151" y="386"/>
      <point x="151" y="376" type="curve" smooth="yes"/>
      <point x="154" y="282"/>
      <point x="156" y="223"/>
      <point x="159" y="132" type="curve" smooth="yes"/>
      <point x="159" y="126"/>
      <point x="160" y="120"/>
      <point x="169" y="120" type="curve" smooth="yes"/>
      <point x="206" y="120" type="line" smooth="yes"/>
      <point x="214" y="120"/>
      <point x="217" y="126"/>
      <point x="217" y="132" type="curve" smooth="yes"/>
      <point x="219" y="241"/>
      <point x="222" y="293"/>
      <point x="225" y="377" type="curve" smooth="yes"/>
      <point x="225" y="384"/>
      <point x="229" y="390"/>
      <point x="234" y="390" type="curve" smooth="yes"/>
    </contour>
  </outline>
</glyph>
<glyph name="daggerdbl" format="1">
  <advance width="374"/>
  <unicode hex="2021"/>
  <outline>
    <contour>
      <point x="224" y="339" type="curve" smooth="yes"/>
      <point x="222" y="360"/>
      <point x="224" y="377"/>
      <point x="224" y="399" type="curve" smooth="yes"/>
      <point x="224" y="407"/>
      <point x="228" y="412"/>
      <point x="233" y="412" type="curve" smooth="yes"/>
      <point x="268" y="412" type="line" smooth="yes"/>
      <point x="278" y="412"/>
      <point x="286" y="416"/>
      <point x="296" y="431" type="curve" smooth="yes"/>
      <point x="308" y="448"/>
      <point x="329" y="495"/>
      <point x="329" y="504" type="curve" smooth="yes"/>
      <point x="329" y="514"/>
      <point x="321" y="518"/>
      <point x="311" y="518" type="curve" smooth="yes"/>
      <point x="232" y="518" type="line" smooth="yes"/>
      <point x="226" y="518"/>
      <point x="223" y="519"/>
      <point x="223" y="525" type="curve" smooth="yes"/>
      <point x="221" y="567"/>
      <point x="220" y="581"/>
      <point x="218" y="610" type="curve" smooth="yes"/>
      <point x="218" y="616"/>
      <point x="215" y="622"/>
      <point x="207" y="622" type="curve" smooth="yes"/>
      <point x="169" y="622" type="line" smooth="yes"/>
      <point x="160" y="622"/>
      <point x="159" y="615"/>
      <point x="158" y="609" type="curve" smooth="yes"/>
      <point x="156" y="578"/>
      <point x="155" y="569"/>
      <point x="152" y="528" type="curve" smooth="yes"/>
      <point x="151" y="522"/>
      <point x="149" y="518"/>
      <point x="143" y="518" type="curve" smooth="yes"/>
      <point x="104" y="518" type="line" smooth="yes"/>
      <point x="96" y="518"/>
      <point x="89" y="514"/>
      <point x="80" y="504" type="curve" smooth="yes"/>
      <point x="65" y="485"/>
      <point x="40" y="432"/>
      <point x="40" y="422" type="curve" smooth="yes"/>
      <point x="40" y="414"/>
      <point x="47" y="412"/>
      <point x="56" y="412" type="curve" smooth="yes"/>
      <point x="137" y="412" type="line" smooth="yes"/>
      <point x="145" y="412"/>
      <point x="148" y="408"/>
      <point x="149" y="399" type="curve" smooth="yes"/>
      <point x="149" y="381"/>
      <point x="149" y="367"/>
      <point x="148" y="338" type="curve" smooth="yes"/>
      <point x="148" y="330"/>
      <point x="144" y="330"/>
      <point x="139" y="330" type="curve" smooth="yes"/>
      <point x="103" y="330" type="line" smooth="yes"/>
      <point x="93" y="330"/>
      <point x="87" y="327"/>
      <point x="76" y="313" type="curve" smooth="yes"/>
      <point x="64" y="297"/>
      <point x="42" y="245"/>
      <point x="42" y="236" type="curve" smooth="yes"/>
      <point x="42" y="226"/>
      <point x="49" y="223"/>
      <point x="59" y="223" type="curve" smooth="yes"/>
      <point x="140" y="223" type="line" smooth="yes"/>
      <point x="146" y="223"/>
      <point x="149" y="222"/>
      <point x="149" y="216" type="curve" smooth="yes"/>
      <point x="150" y="174"/>
      <point x="152" y="161"/>
      <point x="153" y="132" type="curve" smooth="yes"/>
      <point x="153" y="126"/>
      <point x="156" y="120"/>
      <point x="164" y="120" type="curve" smooth="yes"/>
      <point x="203" y="120" type="line" smooth="yes"/>
      <point x="212" y="120"/>
      <point x="212" y="126"/>
      <point x="213" y="132" type="curve" smooth="yes"/>
      <point x="215" y="164"/>
      <point x="217" y="172"/>
      <point x="220" y="213" type="curve" smooth="yes"/>
      <point x="221" y="219"/>
      <point x="223" y="223"/>
      <point x="228" y="223" type="curve" smooth="yes"/>
      <point x="266" y="223" type="line" smooth="yes"/>
      <point x="275" y="223"/>
      <point x="283" y="226"/>
      <point x="290" y="236" type="curve" smooth="yes"/>
      <point x="306" y="256"/>
      <point x="334" y="310"/>
      <point x="334" y="321" type="curve" smooth="yes"/>
      <point x="334" y="328"/>
      <point x="326" y="330"/>
      <point x="317" y="330" type="curve" smooth="yes"/>
      <point x="236" y="330" type="line" smooth="yes"/>
      <point x="227" y="330"/>
      <point x="224" y="329"/>
    </contour>
  </outline>
</glyph>
<glyph name="guilsinglright" format="1">
  <advance width="231"/>
  <unicode hex="203A"/>
  <outline>
    <contour>
      <point x="126" y="178" type="curve" smooth="yes"/>
      <point x="142" y="198"/>
      <point x="175" y="247"/>
      <point x="187" y="272" type="curve" smooth="yes"/>
      <point x="189" y="276"/>
      <point x="191" y="282"/>
      <point x="191" y="287" type="curve" smooth="yes"/>
      <point x="191" y="293"/>
      <point x="189" y="299"/>
      <point x="182" y="310" type="curve" smooth="yes"/>
      <point x="167" y="335"/>
      <point x="112" y="395"/>
      <point x="85" y="418" type="curve" smooth="yes"/>
      <point x="80" y="422"/>
      <point x="77" y="423"/>
      <point x="75" y="423" type="curve" smooth="yes"/>
      <point x="72" y="423"/>
      <point x="68" y="421"/>
      <point x="65" y="418" type="curve" smooth="yes"/>
      <point x="48" y="399"/>
      <point x="22" y="360"/>
      <point x="15" y="348" type="curve"/>
      <point x="15" y="348"/>
      <point x="9" y="337"/>
      <point x="9" y="332" type="curve" smooth="yes"/>
      <point x="9" y="329"/>
      <point x="10" y="324"/>
      <point x="13" y="321" type="curve" smooth="yes"/>
      <point x="61" y="267" type="line" smooth="yes"/>
      <point x="64" y="264"/>
      <point x="66" y="258"/>
      <point x="66" y="255" type="curve" smooth="yes"/>
      <point x="66" y="252"/>
      <point x="66" y="248"/>
      <point x="63" y="243" type="curve" smooth="yes"/>
      <point x="51" y="219"/>
      <point x="29" y="166"/>
      <point x="17" y="141" type="curve" smooth="yes"/>
      <point x="15" y="137"/>
      <point x="14" y="133"/>
      <point x="14" y="130" type="curve" smooth="yes"/>
      <point x="14" y="126"/>
      <point x="18" y="123"/>
      <point x="23" y="123" type="curve" smooth="yes"/>
      <point x="25" y="123"/>
      <point x="28" y="123"/>
      <point x="32" y="125" type="curve" smooth="yes"/>
      <point x="40" y="128"/>
      <point x="90" y="152"/>
      <point x="95" y="155" type="curve" smooth="yes"/>
      <point x="102" y="159"/>
      <point x="117" y="166"/>
    </contour>
  </outline>
</glyph>
<glyph name="Euro" format="1">
  <advance width="568"/>
  <unicode hex="20AC"/>
  <outline>
    <contour>
      <point x="347" y="-16" type="curve" smooth="yes"/>
      <point x="387" y="-16"/>
      <point x="425" y="-4"/>
      <point x="450" y="9" type="curve" smooth="yes"/>
      <point x="475" y="22"/>
      <point x="523" y="81"/>
      <point x="546" y="112" type="curve" smooth="yes"/>
      <point x="555" y="124"/>
      <point x="561" y="129"/>
      <point x="561" y="141" type="curve" smooth="yes"/>
      <point x="561" y="147"/>
      <point x="557" y="152"/>
      <point x="550" y="152" type="curve" smooth="yes"/>
      <point x="543" y="152"/>
      <point x="448" y="117"/>
      <point x="372" y="117" type="curve" smooth="yes"/>
      <point x="290" y="117"/>
      <point x="223" y="136"/>
      <point x="203" y="278" type="curve"/>
      <point x="203" y="278"/>
      <point x="331" y="278"/>
      <point x="425" y="280" type="curve" smooth="yes"/>
      <point x="439" y="280"/>
      <point x="467" y="280"/>
      <point x="478" y="285" type="curve" smooth="yes"/>
      <point x="494" y="292"/>
      <point x="512" y="306"/>
      <point x="522" y="316" type="curve" smooth="yes"/>
      <point x="526" y="320"/>
      <point x="534" y="328"/>
      <point x="534" y="331" type="curve" smooth="yes"/>
      <point x="534" y="335"/>
      <point x="531" y="338"/>
      <point x="524" y="338" type="curve" smooth="yes"/>
      <point x="197" y="338" type="line"/>
      <point x="197" y="363"/>
      <point x="198" y="380"/>
      <point x="199" y="391" type="curve"/>
      <point x="240" y="392"/>
      <point x="348" y="393"/>
      <point x="416" y="395" type="curve" smooth="yes"/>
      <point x="446" y="396"/>
      <point x="477" y="400"/>
      <point x="489" y="406" type="curve" smooth="yes"/>
      <point x="513" y="418"/>
      <point x="516" y="422"/>
      <point x="527" y="431" type="curve" smooth="yes"/>
      <point x="530" y="433"/>
      <point x="539" y="443"/>
      <point x="539" y="446" type="curve" smooth="yes"/>
      <point x="539" y="450"/>
      <point x="536" y="453"/>
      <point x="529" y="453" type="curve" smooth="yes"/>
      <point x="209" y="453" type="line" smooth="yes"/>
      <point x="206" y="453"/>
      <point x="206" y="455"/>
      <point x="206" y="457" type="curve" smooth="yes"/>
      <point x="206" y="471"/>
      <point x="214" y="523"/>
      <point x="231" y="546" type="curve" smooth="yes"/>
      <point x="251" y="573"/>
      <point x="271" y="583"/>
      <point x="319" y="583" type="curve" smooth="yes"/>
      <point x="371" y="583"/>
      <point x="399" y="563"/>
      <point x="430" y="550" type="curve" smooth="yes"/>
      <point x="435" y="548"/>
      <point x="441" y="545"/>
      <point x="448" y="545" type="curve" smooth="yes"/>
      <point x="456" y="545"/>
      <point x="463" y="553"/>
      <point x="467" y="559" type="curve" smooth="yes"/>
      <point x="491" y="592"/>
      <point x="517" y="628"/>
      <point x="530" y="650" type="curve" smooth="yes"/>
      <point x="534" y="657"/>
      <point x="536" y="663"/>
      <point x="536" y="668" type="curve" smooth="yes"/>
      <point x="536" y="673"/>
      <point x="532" y="678"/>
      <point x="524" y="681" type="curve" smooth="yes"/>
      <point x="482" y="697"/>
      <point x="434" y="709"/>
      <point x="385" y="709" type="curve" smooth="yes"/>
      <point x="348" y="709"/>
      <point x="326" y="703"/>
      <point x="297" y="692" type="curve" smooth="yes"/>
      <point x="221" y="663"/>
      <point x="169" y="627"/>
      <point x="112" y="570" type="curve" smooth="yes"/>
      <point x="84" y="542"/>
      <point x="64" y="474"/>
      <point x="62" y="453" type="curve"/>
      <point x="46" y="453" type="line" smooth="yes"/>
      <point x="32" y="453"/>
      <point x="34" y="452"/>
      <point x="23" y="445" type="curve"/>
      <point x="-5" y="417" type="line" smooth="yes"/>
      <point x="-11" y="411"/>
      <point x="-18" y="401"/>
      <point x="-18" y="398" type="curve" smooth="yes"/>
      <point x="-18" y="394"/>
      <point x="-11" y="392"/>
      <point x="-4" y="392" type="curve" smooth="yes"/>
      <point x="50" y="392" type="line"/>
      <point x="46" y="374"/>
      <point x="44" y="359"/>
      <point x="43" y="342" type="curve"/>
      <point x="41" y="338" type="line"/>
      <point x="27" y="338" type="line"/>
      <point x="17" y="337"/>
      <point x="14" y="335"/>
      <point x="9" y="330" type="curve" smooth="yes"/>
      <point x="-12" y="305" type="line" smooth="yes"/>
      <point x="-18" y="298"/>
      <point x="-25" y="289"/>
      <point x="-25" y="285" type="curve" smooth="yes"/>
      <point x="-25" y="281"/>
      <point x="-23" y="278"/>
      <point x="-16" y="278" type="curve" smooth="yes"/>
      <point x="45" y="278" type="line"/>
      <point x="63" y="107"/>
      <point x="143" y="-16"/>
    </contour>
  </outline>
</glyph>
<glyph name="greaterequal" format="1">
  <advance width="568"/>
  <unicode hex="2265"/>
  <outline>
    <contour>
      <point x="501" y="379" type="line"/>
      <point x="501" y="389"/>
      <point x="498" y="391"/>
      <point x="492" y="394" type="curve" smooth="yes"/>
      <point x="492" y="394"/>
      <point x="354" y="447"/>
      <point x="293" y="477" type="curve" smooth="yes"/>
      <point x="242" y="502"/>
      <point x="179" y="531"/>
      <point x="124" y="557" type="curve"/>
      <point x="120" y="559"/>
      <point x="116" y="560"/>
      <point x="112" y="560" type="curve" smooth="yes"/>
      <point x="107" y="560"/>
      <point x="103" y="558"/>
      <point x="98" y="548" type="curve" smooth="yes"/>
      <point x="73" y="495" type="line" smooth="yes"/>
      <point x="72" y="492"/>
      <point x="70" y="489"/>
      <point x="70" y="486" type="curve" smooth="yes"/>
      <point x="70" y="481"/>
      <point x="76" y="477"/>
      <point x="84" y="474" type="curve" smooth="yes"/>
      <point x="84" y="474"/>
      <point x="204" y="423"/>
      <point x="249" y="403" type="curve" smooth="yes"/>
      <point x="383" y="345" type="line"/>
      <point x="249" y="284" type="line"/>
      <point x="207" y="264"/>
      <point x="81" y="211"/>
      <point x="81" y="211" type="curve" smooth="yes"/>
      <point x="73" y="208"/>
      <point x="71" y="204"/>
      <point x="71" y="199" type="curve" smooth="yes"/>
      <point x="71" y="196"/>
      <point x="72" y="194"/>
      <point x="73" y="191" type="curve" smooth="yes"/>
      <point x="101" y="133" type="line" smooth="yes"/>
      <point x="104" y="127"/>
      <point x="107" y="125"/>
      <point x="111" y="125" type="curve" smooth="yes"/>
      <point x="114" y="125"/>
      <point x="120" y="127"/>
      <point x="124" y="129" type="curve" smooth="yes"/>
      <point x="124" y="129"/>
      <point x="242" y="185"/>
      <point x="293" y="209" type="curve" smooth="yes"/>
      <point x="352" y="237"/>
      <point x="492" y="296"/>
      <point x="492" y="296" type="curve" smooth="yes"/>
      <point x="498" y="299"/>
      <point x="501" y="303"/>
      <point x="501" y="316" type="curve" smooth="yes"/>
    </contour>
    <contour>
      <point x="84" y="92" type="curve"/>
      <point x="71" y="92"/>
      <point x="68" y="86"/>
      <point x="68" y="76" type="curve" smooth="yes"/>
      <point x="68" y="17" type="line" smooth="yes"/>
      <point x="68" y="8"/>
      <point x="71" y="2"/>
      <point x="84" y="2" type="curve" smooth="yes"/>
      <point x="84" y="2"/>
      <point x="224" y="5"/>
      <point x="279" y="5" type="curve" smooth="yes"/>
      <point x="325" y="5"/>
      <point x="471" y="2"/>
      <point x="471" y="2" type="curve"/>
      <point x="484" y="2"/>
      <point x="487" y="8"/>
      <point x="487" y="17" type="curve" smooth="yes"/>
      <point x="487" y="76" type="line" smooth="yes"/>
      <point x="487" y="90"/>
      <point x="479" y="92"/>
      <point x="473" y="92" type="curve" smooth="yes"/>
      <point x="473" y="92"/>
      <point x="334" y="89"/>
      <point x="277" y="89" type="curve" smooth="yes"/>
      <point x="212" y="89"/>
      <point x="84" y="92"/>
    </contour>
  </outline>
</glyph>
<glyph name="uniFB29" format="1">
  <advance width="568"/>
  <unicode hex="FB29"/>
  <outline>
    <contour>
      <point x="284" y="273" type="curve" smooth="yes"/>
      <point x="378" y="273"/>
      <point x="486" y="271"/>
      <point x="486" y="271" type="curve"/>
      <point x="499" y="271"/>
      <point x="502" y="277"/>
      <point x="502" y="286" type="curve" smooth="yes"/>
      <point x="502" y="345" type="line" smooth="yes"/>
      <point x="502" y="359"/>
      <point x="497" y="361"/>
      <point x="488" y="361" type="curve" smooth="yes"/>
      <point x="488" y="361"/>
      <point x="386" y="358"/>
      <point x="324" y="358" type="curve"/>
      <point x="324" y="414"/>
      <point x="327" y="515"/>
      <point x="327" y="515" type="curve"/>
      <point x="327" y="528"/>
      <point x="321" y="531"/>
      <point x="312" y="531" type="curve" smooth="yes"/>
      <point x="253" y="531" type="line" smooth="yes"/>
      <point x="239" y="531"/>
      <point x="237" y="523"/>
      <point x="237" y="517" type="curve" smooth="yes"/>
      <point x="237" y="517"/>
      <point x="239" y="421"/>
      <point x="240" y="358" type="curve"/>
      <point x="168" y="359"/>
      <point x="82" y="361"/>
      <point x="82" y="361" type="curve"/>
      <point x="69" y="361"/>
      <point x="66" y="355"/>
      <point x="66" y="345" type="curve" smooth="yes"/>
      <point x="66" y="286" type="line" smooth="yes"/>
      <point x="66" y="277"/>
      <point x="69" y="271"/>
      <point x="82" y="271" type="curve" smooth="yes"/>
      <point x="82" y="271"/>
      <point x="170" y="273"/>
    </contour>
  </outline>
</glyph>
<glyph name="seven.001" format="1">
  <advance width="500"/>
  <outline>
    <contour>
      <point x="130" y="137" type="curve" smooth="yes"/>
      <point x="152" y="194"/>
      <point x="184" y="243"/>
      <point x="227" y="300" type="curve" smooth="yes"/>
      <point x="248" y="329"/>
      <point x="280" y="383"/>
      <point x="280" y="401" type="curve" smooth="yes"/>
      <point x="280" y="408"/>
      <point x="273" y="414"/>
      <point x="262" y="414" type="curve" smooth="yes"/>
      <point x="73" y="414" type="line"/>
      <point x="54" y="414"/>
      <point x="42" y="417"/>
      <point x="42" y="432" type="curve" smooth="yes"/>
      <point x="42" y="433"/>
      <point x="49" y="457"/>
      <point x="54" y="470" type="curve" smooth="yes"/>
      <point x="71" y="514"/>
      <point x="100" y="571"/>
      <point x="121" y="597" type="curve" smooth="yes"/>
      <point x="126" y="604"/>
      <point x="136" y="608"/>
      <point x="142" y="608" type="curve" smooth="yes"/>
      <point x="151" y="608"/>
      <point x="158" y="603"/>
      <point x="160" y="597" type="curve" smooth="yes"/>
      <point x="167" y="577"/>
      <point x="171" y="573"/>
      <point x="189" y="573" type="curve" smooth="yes"/>
      <point x="425" y="573" type="line"/>
      <point x="453" y="573"/>
      <point x="462" y="557"/>
      <point x="462" y="542" type="curve" smooth="yes"/>
      <point x="462" y="519"/>
      <point x="439" y="456"/>
      <point x="411" y="408" type="curve" smooth="yes"/>
      <point x="394" y="378"/>
      <point x="372" y="350"/>
      <point x="356" y="328" type="curve" smooth="yes"/>
      <point x="330" y="293"/>
      <point x="299" y="244"/>
      <point x="283" y="202" type="curve" smooth="yes"/>
      <point x="276" y="185"/>
      <point x="264" y="146"/>
      <point x="264" y="126" type="curve" smooth="yes"/>
      <point x="264" y="111"/>
      <point x="258" y="97"/>
      <point x="250" y="87" type="curve" smooth="yes"/>
      <point x="225" y="50"/>
      <point x="172" y="4"/>
      <point x="141" y="-17" type="curve" smooth="yes"/>
      <point x="137" y="-20"/>
      <point x="130" y="-23"/>
      <point x="126" y="-23" type="curve" smooth="yes"/>
      <point x="116" y="-23"/>
      <point x="110" y="-16"/>
      <point x="110" y="-2" type="curve" smooth="yes"/>
      <point x="110" y="61"/>
      <point x="117" y="104"/>
    </contour>
  </outline>
</glyph>
<glyph name="six.001" format="1">
  <advance width="500"/>
  <outline>
    <contour>
      <point x="30" y="162" type="curve" smooth="yes"/>
      <point x="30" y="226"/>
      <point x="74" y="310"/>
      <point x="115" y="381" type="curve" smooth="yes"/>
      <point x="158" y="455"/>
      <point x="193" y="505"/>
      <point x="209" y="530" type="curve" smooth="yes"/>
      <point x="219" y="545"/>
      <point x="229" y="552"/>
      <point x="240" y="559" type="curve" smooth="yes"/>
      <point x="269" y="578"/>
      <point x="339" y="607"/>
      <point x="361" y="607" type="curve" smooth="yes"/>
      <point x="373" y="607"/>
      <point x="382" y="597"/>
      <point x="382" y="589" type="curve" smooth="yes"/>
      <point x="382" y="580"/>
      <point x="375" y="569"/>
      <point x="367" y="559" type="curve" smooth="yes"/>
      <point x="329" y="511"/>
      <point x="277" y="438"/>
      <point x="242" y="374" type="curve" smooth="yes"/>
      <point x="241" y="372"/>
      <point x="240" y="371"/>
      <point x="240" y="370" type="curve" smooth="yes"/>
      <point x="240" y="369"/>
      <point x="242" y="368"/>
      <point x="243" y="368" type="curve" smooth="yes"/>
      <point x="245" y="368"/>
      <point x="247" y="369"/>
      <point x="248" y="370" type="curve" smooth="yes"/>
      <point x="255" y="374"/>
      <point x="273" y="379"/>
      <point x="300" y="379" type="curve" smooth="yes"/>
      <point x="385" y="379"/>
      <point x="441" y="290"/>
      <point x="441" y="219" type="curve" smooth="yes"/>
      <point x="441" y="155"/>
      <point x="412" y="103"/>
      <point x="369" y="56" type="curve" smooth="yes"/>
      <point x="338" y="23"/>
      <point x="285" y="-18"/>
      <point x="224" y="-18" type="curve" smooth="yes"/>
      <point x="174" y="-18"/>
      <point x="119" y="5"/>
      <point x="92" y="31" type="curve" smooth="yes"/>
      <point x="71" y="50"/>
      <point x="30" y="91"/>
    </contour>
    <contour>
      <point x="190" y="135" type="curve" smooth="yes"/>
      <point x="206" y="122"/>
      <point x="231" y="113"/>
      <point x="243" y="113" type="curve" smooth="yes"/>
      <point x="292" y="113"/>
      <point x="316" y="138"/>
      <point x="316" y="179" type="curve" smooth="yes"/>
      <point x="316" y="206"/>
      <point x="296" y="263"/>
      <point x="240" y="263" type="curve" smooth="yes"/>
      <point x="195" y="263"/>
      <point x="164" y="224"/>
      <point x="164" y="184" type="curve" smooth="yes"/>
      <point x="164" y="164"/>
      <point x="174" y="147"/>
    </contour>
  </outline>
</glyph>
